G75*
%MOIN*%
%OFA0B0*%
%FSLAX24Y24*%
%IPPOS*%
%LPD*%
%AMOC8*
5,1,8,0,0,1.08239X$1,22.5*
%
%ADD10C,0.0010*%
%ADD11C,0.0004*%
%ADD12R,0.0187X0.0012*%
%ADD13R,0.0462X0.0013*%
%ADD14R,0.1162X0.0012*%
%ADD15R,0.1162X0.0013*%
%ADD16R,0.1150X0.0013*%
%ADD17R,0.1150X0.0012*%
%ADD18R,0.0187X0.0013*%
%ADD19R,0.0925X0.0013*%
%ADD20R,0.0162X0.0012*%
%ADD21R,0.0075X0.0012*%
%ADD22R,0.0200X0.0012*%
%ADD23R,0.0100X0.0012*%
%ADD24R,0.0062X0.0012*%
%ADD25R,0.0175X0.0012*%
%ADD26R,0.0150X0.0012*%
%ADD27R,0.0087X0.0012*%
%ADD28R,0.0075X0.0012*%
%ADD29R,0.0162X0.0013*%
%ADD30R,0.0062X0.0013*%
%ADD31R,0.0200X0.0013*%
%ADD32R,0.0075X0.0013*%
%ADD33R,0.0200X0.0013*%
%ADD34R,0.0212X0.0012*%
%ADD35R,0.0175X0.0013*%
%ADD36R,0.0075X0.0013*%
%ADD37R,0.0212X0.0013*%
%ADD38R,0.0200X0.0012*%
%ADD39R,0.0100X0.0012*%
%ADD40R,0.0050X0.0012*%
%ADD41R,0.0225X0.0012*%
%ADD42R,0.0337X0.0013*%
%ADD43R,0.0050X0.0013*%
%ADD44R,0.0225X0.0013*%
%ADD45R,0.0337X0.0012*%
%ADD46R,0.0037X0.0012*%
%ADD47R,0.0237X0.0012*%
%ADD48R,0.0350X0.0013*%
%ADD49R,0.0025X0.0013*%
%ADD50R,0.0250X0.0013*%
%ADD51R,0.0387X0.0012*%
%ADD52R,0.0287X0.0012*%
%ADD53R,0.0412X0.0013*%
%ADD54R,0.0325X0.0013*%
%ADD55R,0.0437X0.0012*%
%ADD56R,0.0337X0.0012*%
%ADD57R,0.0462X0.0012*%
%ADD58R,0.0487X0.0013*%
%ADD59R,0.0512X0.0012*%
%ADD60R,0.0038X0.0012*%
%ADD61R,0.0375X0.0012*%
%ADD62R,0.0537X0.0013*%
%ADD63R,0.0087X0.0013*%
%ADD64R,0.0387X0.0013*%
%ADD65R,0.0562X0.0012*%
%ADD66R,0.0412X0.0012*%
%ADD67R,0.0587X0.0013*%
%ADD68R,0.0100X0.0013*%
%ADD69R,0.0425X0.0013*%
%ADD70R,0.0600X0.0012*%
%ADD71R,0.0450X0.0012*%
%ADD72R,0.0625X0.0013*%
%ADD73R,0.0475X0.0013*%
%ADD74R,0.0650X0.0012*%
%ADD75R,0.0487X0.0012*%
%ADD76R,0.0662X0.0013*%
%ADD77R,0.0512X0.0013*%
%ADD78R,0.0687X0.0012*%
%ADD79R,0.0537X0.0012*%
%ADD80R,0.0700X0.0013*%
%ADD81R,0.0562X0.0013*%
%ADD82R,0.0712X0.0012*%
%ADD83R,0.0587X0.0012*%
%ADD84R,0.0737X0.0013*%
%ADD85R,0.0600X0.0013*%
%ADD86R,0.0750X0.0012*%
%ADD87R,0.0762X0.0012*%
%ADD88R,0.0237X0.0012*%
%ADD89R,0.0412X0.0012*%
%ADD90R,0.0412X0.0013*%
%ADD91R,0.0362X0.0013*%
%ADD92R,0.0287X0.0013*%
%ADD93R,0.0400X0.0013*%
%ADD94R,0.0400X0.0012*%
%ADD95R,0.1137X0.0012*%
%ADD96R,0.0400X0.0012*%
%ADD97R,0.1137X0.0013*%
%ADD98R,0.0375X0.0013*%
%ADD99R,0.0362X0.0012*%
%ADD100R,0.0350X0.0013*%
%ADD101R,0.0350X0.0012*%
%ADD102R,0.1125X0.0012*%
%ADD103R,0.0337X0.0013*%
%ADD104R,0.0875X0.0013*%
%ADD105R,0.0325X0.0012*%
%ADD106R,0.0312X0.0013*%
%ADD107R,0.0312X0.0012*%
%ADD108R,0.0312X0.0012*%
%ADD109R,0.0300X0.0013*%
%ADD110R,0.0287X0.0012*%
%ADD111R,0.0287X0.0013*%
%ADD112R,0.0275X0.0012*%
%ADD113R,0.0137X0.0013*%
%ADD114R,0.0175X0.0013*%
%ADD115R,0.0250X0.0012*%
%ADD116R,0.0275X0.0013*%
%ADD117R,0.0362X0.0013*%
%ADD118R,0.0262X0.0012*%
%ADD119R,0.0175X0.0012*%
%ADD120R,0.0262X0.0012*%
%ADD121R,0.0275X0.0013*%
%ADD122R,0.0450X0.0013*%
%ADD123R,0.0425X0.0012*%
%ADD124R,0.0475X0.0012*%
%ADD125R,0.0500X0.0012*%
%ADD126R,0.0450X0.0012*%
%ADD127R,0.0250X0.0012*%
%ADD128R,0.0262X0.0013*%
%ADD129R,0.0187X0.0012*%
%ADD130R,0.0250X0.0013*%
%ADD131R,0.0187X0.0013*%
%ADD132R,0.0237X0.0013*%
%ADD133R,0.0237X0.0013*%
%ADD134R,0.0150X0.0012*%
%ADD135R,0.0225X0.0013*%
%ADD136R,0.0212X0.0012*%
%ADD137R,0.0437X0.0013*%
%ADD138R,0.0225X0.0012*%
%ADD139R,0.0387X0.0013*%
%ADD140R,0.0400X0.0013*%
%ADD141R,0.0437X0.0012*%
%ADD142R,0.3412X0.0013*%
%ADD143R,0.3437X0.0012*%
%ADD144R,0.3450X0.0012*%
%ADD145R,0.3450X0.0013*%
%ADD146R,0.3462X0.0012*%
%ADD147R,0.3462X0.0013*%
%ADD148R,0.3475X0.0012*%
%ADD149R,0.3475X0.0013*%
%ADD150R,0.0037X0.0013*%
%ADD151R,0.0275X0.0012*%
%ADD152R,0.0112X0.0012*%
%ADD153R,0.0137X0.0012*%
%ADD154R,0.0125X0.0012*%
%ADD155R,0.0125X0.0012*%
%ADD156R,0.0088X0.0012*%
%ADD157R,0.0150X0.0013*%
%ADD158R,0.0063X0.0013*%
%ADD159R,0.0125X0.0013*%
%ADD160R,0.0150X0.0013*%
%ADD161R,0.0038X0.0013*%
%ADD162R,0.0450X0.0013*%
%ADD163R,0.0025X0.0012*%
%ADD164R,0.0050X0.0012*%
%ADD165R,0.0112X0.0013*%
%ADD166R,0.0050X0.0013*%
%ADD167R,0.0012X0.0012*%
%ADD168R,0.0012X0.0013*%
%ADD169R,0.0013X0.0013*%
%ADD170R,0.0013X0.0012*%
%ADD171R,0.0063X0.0012*%
%ADD172R,0.0088X0.0013*%
%ADD173R,0.0425X0.0013*%
%ADD174R,0.0425X0.0012*%
%ADD175R,0.0113X0.0013*%
%ADD176R,0.0138X0.0012*%
%ADD177R,0.0138X0.0013*%
%ADD178R,0.0100X0.0013*%
%ADD179R,0.3437X0.0013*%
%ADD180R,0.3425X0.0012*%
%ADD181R,0.3412X0.0012*%
%ADD182R,0.3400X0.0013*%
%ADD183R,0.3400X0.0012*%
%ADD184R,0.3225X0.0013*%
%ADD185R,0.2425X0.0012*%
%ADD186R,0.1787X0.0013*%
%ADD187R,0.1150X0.0012*%
%ADD188R,0.0512X0.0013*%
%ADD189R,0.0362X0.0012*%
%ADD190R,0.0262X0.0013*%
%ADD191R,0.0325X0.0012*%
%ADD192R,0.0300X0.0012*%
%ADD193R,0.0300X0.0012*%
%ADD194R,0.0525X0.0013*%
%ADD195R,0.0550X0.0012*%
%ADD196R,0.0575X0.0012*%
%ADD197R,0.0612X0.0012*%
%ADD198R,0.0637X0.0013*%
%ADD199R,0.0662X0.0012*%
%ADD200R,0.0350X0.0012*%
%ADD201R,0.0750X0.0013*%
%ADD202R,0.0762X0.0013*%
%ADD203R,0.0762X0.0013*%
%ADD204R,0.0475X0.0013*%
%ADD205R,0.0500X0.0012*%
%ADD206R,0.0525X0.0013*%
%ADD207R,0.0737X0.0012*%
%ADD208R,0.0912X0.0013*%
%ADD209R,0.0787X0.0013*%
%ADD210R,0.1575X0.0012*%
%ADD211R,0.1537X0.0013*%
%ADD212R,0.0875X0.0012*%
%ADD213R,0.1500X0.0012*%
%ADD214R,0.0862X0.0012*%
%ADD215R,0.1450X0.0012*%
%ADD216R,0.0837X0.0012*%
%ADD217R,0.1400X0.0012*%
%ADD218R,0.0825X0.0012*%
%ADD219R,0.1337X0.0012*%
%ADD220R,0.0812X0.0013*%
%ADD221R,0.1275X0.0013*%
%ADD222R,0.0775X0.0012*%
%ADD223R,0.1225X0.0012*%
%ADD224R,0.1100X0.0012*%
%ADD225R,0.1025X0.0013*%
%ADD226R,0.0950X0.0012*%
%ADD227R,0.0850X0.0013*%
%ADD228R,0.0762X0.0012*%
%ADD229R,0.0650X0.0013*%
%ADD230R,0.0525X0.0012*%
%ADD231R,0.0312X0.0013*%
%ADD232R,0.0162X0.0012*%
%ADD233R,0.0113X0.0012*%
%ADD234C,0.0060*%
%ADD235C,0.0100*%
%ADD236C,0.0050*%
%ADD237C,0.0040*%
%ADD238C,0.0059*%
D10*
X005682Y009387D02*
X005682Y009460D01*
X005557Y009460D01*
X005557Y009555D01*
X005438Y009555D01*
X005438Y009675D01*
X005386Y009675D01*
X005386Y009746D01*
X005331Y009746D01*
X005331Y009835D01*
X005283Y009835D01*
X005283Y009927D01*
X005250Y009927D01*
X005250Y010007D01*
X005235Y010007D01*
X005235Y010055D01*
X005135Y010055D01*
X005135Y010061D01*
X004929Y010061D01*
X004929Y010074D01*
X004755Y010074D01*
X005682Y009387D02*
X005818Y009387D01*
X005818Y009333D01*
X005969Y009333D01*
X005969Y009320D01*
X006023Y009320D01*
X006023Y009312D01*
X006073Y009312D01*
X006073Y009309D01*
X006244Y009309D01*
X006244Y009310D01*
X006349Y009310D01*
X006349Y009313D01*
X006415Y009313D01*
X006415Y009320D02*
X006463Y009320D01*
X006463Y009335D01*
X006514Y009335D01*
X006514Y009363D02*
X006595Y009363D01*
X006595Y009396D01*
X006672Y009396D01*
X006672Y009417D01*
X006716Y009417D01*
X006716Y009440D01*
X006758Y009440D01*
X006758Y009471D01*
X006807Y009471D01*
X006807Y009514D01*
X006871Y009514D01*
X006871Y009550D01*
X006918Y009550D01*
X006918Y009598D01*
X006966Y009598D01*
X006966Y009653D01*
X007016Y009653D01*
X007016Y009715D01*
X007064Y009715D01*
X007064Y009780D01*
X007109Y009780D01*
X007109Y009846D01*
X007149Y009846D01*
X007149Y009909D01*
X007182Y009909D01*
X007207Y009931D01*
X007231Y009931D01*
X007231Y010005D01*
X007256Y010005D01*
X007256Y010011D01*
X007305Y010011D01*
X007305Y010014D01*
X007335Y010014D01*
X007335Y010017D01*
X007384Y010017D01*
X007384Y010021D01*
X007444Y010021D01*
X007444Y010023D01*
X007508Y010023D01*
X007508Y010027D01*
X007581Y010027D01*
X007581Y010031D01*
X007664Y010031D01*
X007664Y010037D01*
X007748Y010037D01*
X007748Y010043D01*
X007821Y010043D01*
X007821Y010049D01*
X007893Y010049D01*
X007893Y010053D01*
X007948Y010053D01*
X007948Y010055D01*
X007990Y010055D01*
X007990Y010056D01*
X008020Y010056D01*
X008020Y010054D01*
X008041Y010054D01*
X008041Y010051D01*
X008054Y010051D01*
X008054Y010045D01*
X008063Y010045D01*
X008063Y010038D01*
X008068Y010038D01*
X008068Y010023D01*
X008084Y010023D01*
X008084Y010011D01*
X008111Y010011D01*
X008111Y010003D01*
X008146Y010003D01*
X008146Y010001D01*
X008189Y010001D01*
X008189Y010003D01*
X008211Y010003D01*
X008211Y010007D01*
X008233Y010007D01*
X008233Y010017D01*
X008256Y010017D01*
X008256Y010031D01*
X008283Y010031D01*
X008283Y010049D01*
X008311Y010049D01*
X008311Y010066D01*
X008328Y010066D01*
X008328Y010088D01*
X008340Y010088D01*
X008353Y010123D01*
X008364Y010123D01*
X008377Y010124D01*
X013513Y010111D01*
X013488Y010154D01*
X013552Y010154D01*
X013552Y010099D01*
X013633Y010099D01*
X013633Y010063D01*
X013698Y010063D01*
X013698Y010040D01*
X013756Y010040D01*
X013756Y010026D01*
X013822Y010026D01*
X013822Y010018D01*
X013917Y010018D01*
X013917Y010016D01*
X014033Y010016D01*
X014033Y010020D01*
X014142Y010020D01*
X014142Y010031D01*
X014217Y010031D01*
X014217Y010036D01*
X014237Y010036D01*
X014237Y010035D01*
X014253Y010035D01*
X014253Y010024D01*
X014270Y010024D01*
X014270Y010000D01*
X014296Y010000D01*
X014296Y009965D01*
X014344Y009965D01*
X014344Y009949D01*
X014391Y009949D01*
X014391Y009953D01*
X014437Y009953D01*
X014437Y009975D01*
X014482Y009975D01*
X014482Y009991D01*
X014513Y009991D01*
X014513Y010008D01*
X014553Y010008D01*
X014553Y010030D01*
X014611Y010030D01*
X014611Y010054D01*
X014661Y010054D01*
X014661Y010079D01*
X014698Y010079D01*
X014698Y010103D01*
X014720Y010103D01*
X014720Y010123D01*
X014736Y010123D01*
X014736Y010136D01*
X014760Y010136D01*
X014760Y010143D01*
X014806Y010143D01*
X014806Y010149D01*
X014885Y010149D01*
X014885Y010154D01*
X014975Y010154D01*
X014975Y010131D01*
X014981Y010131D01*
X014981Y010107D01*
X014993Y010107D01*
X014993Y010083D01*
X015013Y010083D01*
X015013Y010071D01*
X015028Y010071D01*
X015028Y010063D01*
X015041Y010063D01*
X015041Y010061D01*
X015056Y010061D01*
X015056Y010063D01*
X015075Y010063D01*
X015075Y010067D01*
X015107Y010067D01*
X015107Y010075D01*
X015167Y010075D01*
X015167Y010087D01*
X015247Y010087D01*
X015247Y010100D01*
X015338Y010100D01*
X015338Y010114D01*
X015438Y010114D01*
X015438Y010129D01*
X015542Y010129D01*
X015542Y010142D01*
X015636Y010142D01*
X015636Y010152D01*
X015710Y010152D01*
X015710Y010160D01*
X015766Y010160D01*
X015766Y010169D01*
X015814Y010169D01*
X015814Y010176D01*
X015849Y010176D01*
X015849Y010182D01*
X015866Y010182D01*
X015866Y010187D01*
X015897Y010187D01*
X015897Y010188D01*
X015969Y010188D01*
X015969Y010186D01*
X016074Y010186D01*
X016074Y010182D01*
X016204Y010182D01*
X016204Y010176D01*
X016350Y010176D01*
X016350Y010167D01*
X016503Y010167D01*
X016503Y010156D01*
X016656Y010156D01*
X016656Y010144D01*
X016800Y010144D01*
X016800Y010139D01*
X016838Y010139D01*
X016838Y010134D01*
X016867Y010134D01*
X016867Y010128D01*
X016888Y010128D01*
X016888Y010119D01*
X016900Y010119D01*
X016900Y010112D01*
X016914Y010112D01*
X016914Y010105D01*
X016933Y010105D01*
X016933Y010100D01*
X016961Y010100D01*
X016961Y010097D01*
X017001Y010097D01*
X017001Y010093D01*
X017006Y010081D01*
X017006Y010075D01*
X017038Y010075D01*
X017038Y010066D01*
X017064Y010066D01*
X017064Y010051D01*
X016953Y010088D01*
X016953Y010063D01*
X016998Y010063D01*
X016998Y010048D01*
X017039Y010048D01*
X017039Y010040D01*
X017081Y010040D01*
X017081Y010038D01*
X017208Y010038D01*
X017208Y009988D01*
X017233Y009988D01*
X017233Y009887D01*
X017296Y009887D01*
X017296Y009784D01*
X017380Y009784D01*
X017380Y009690D01*
X017476Y009690D01*
X017476Y009615D01*
X017576Y009615D01*
X017576Y009549D01*
X017695Y009549D01*
X017695Y009499D01*
X017823Y009499D01*
X017823Y009464D01*
X017958Y009464D01*
X017958Y009446D01*
X018202Y009446D01*
X018202Y009459D01*
X018309Y009459D01*
X018309Y009484D01*
X018417Y009484D01*
X018417Y009520D01*
X018522Y009520D01*
X018522Y009567D01*
X018624Y009567D01*
X018624Y009624D01*
X018721Y009624D01*
X018721Y009690D01*
X018812Y009690D01*
X018812Y009765D01*
X018893Y009765D01*
X018893Y009861D01*
X018973Y009861D01*
X018973Y009972D01*
X019047Y009972D01*
X019047Y010084D01*
X019106Y010084D01*
X019106Y010184D01*
X019141Y010184D01*
X019141Y010231D01*
X019152Y010231D01*
X019152Y010235D01*
X019205Y010235D01*
X019205Y010237D01*
X019233Y010237D01*
X019233Y010235D01*
X019251Y010235D01*
X019251Y010231D01*
X019262Y010231D01*
X019262Y010222D01*
X019271Y010222D01*
X019271Y010209D01*
X019281Y010209D01*
X019281Y010201D01*
X019296Y010201D01*
X019296Y010196D01*
X019322Y010196D01*
X019322Y010194D01*
X019368Y010194D01*
X019368Y010197D01*
X019441Y010197D01*
X019441Y010203D01*
X019548Y010203D01*
X019548Y010214D01*
X019696Y010214D01*
X019696Y010229D01*
X019893Y010229D01*
X019893Y010242D01*
X020062Y010242D01*
X020062Y010251D01*
X020196Y010251D01*
X020196Y010260D01*
X020298Y010260D01*
X020298Y010267D01*
X020374Y010267D01*
X020374Y010273D01*
X020428Y010273D01*
X020428Y010278D01*
X020464Y010278D01*
X020464Y010284D01*
X020487Y010284D01*
X020487Y010290D01*
X020501Y010290D01*
X020501Y010303D01*
X020539Y010303D01*
X020539Y010308D01*
X020584Y010308D01*
X020584Y010309D01*
X020610Y010309D01*
X020610Y010313D01*
X020629Y010313D01*
X020629Y010323D01*
X020646Y010323D01*
X020646Y010340D01*
X020664Y010340D01*
X020664Y010361D01*
X020680Y010361D01*
X020680Y010378D01*
X020690Y010378D01*
X020690Y010401D01*
X020694Y010401D01*
X020694Y010436D01*
X020694Y010436D01*
X020694Y010491D01*
X020697Y010491D01*
X020697Y010543D01*
X020707Y010543D01*
X020707Y010587D01*
X020720Y010587D01*
X020720Y010616D01*
X020736Y010616D01*
X020736Y010649D01*
X020749Y010649D01*
X020749Y010713D01*
X020758Y010713D01*
X020758Y010799D01*
X020762Y010799D01*
X020762Y010899D01*
X020764Y010899D01*
X020764Y011003D01*
X020762Y011003D01*
X020762Y011103D01*
X020756Y011103D01*
X020756Y011189D01*
X020747Y011189D01*
X020747Y011254D01*
X020734Y011254D01*
X020734Y011330D01*
X020720Y011330D01*
X020720Y011403D01*
X020728Y011403D01*
X020728Y011475D01*
X020722Y011475D01*
X020722Y011533D01*
X020712Y011533D01*
X020712Y011597D01*
X020700Y011597D01*
X020700Y011660D01*
X020685Y011660D01*
X020685Y011715D01*
X020670Y011715D01*
X020670Y011758D01*
X020657Y011758D01*
X020657Y011782D01*
X020646Y011782D01*
X020646Y011798D01*
X020627Y011798D01*
X020627Y011804D01*
X020605Y011804D01*
X020605Y011805D01*
X020592Y011805D01*
X020592Y011810D01*
X020585Y011810D01*
X020585Y011820D01*
X020584Y011820D01*
X020584Y011839D01*
X020587Y011839D01*
X020587Y011860D01*
X020589Y011860D01*
X020589Y011879D01*
X020584Y011879D01*
X020584Y011903D01*
X020572Y011903D01*
X020572Y011940D01*
X020547Y011940D01*
X020547Y011964D01*
X020530Y011964D01*
X020530Y011982D01*
X020516Y011982D01*
X020516Y011998D01*
X020499Y011998D01*
X020499Y012011D01*
X020480Y012011D01*
X020480Y012024D01*
X020454Y012024D01*
X020454Y012040D01*
X020417Y012040D01*
X020417Y012060D01*
X020368Y012060D01*
X020368Y012085D01*
X020302Y012085D01*
X020302Y012102D01*
X020259Y012102D01*
X020259Y012115D01*
X020234Y012115D01*
X020234Y012127D01*
X020221Y012127D01*
X020221Y012142D01*
X020215Y012142D01*
X020215Y012164D01*
X020214Y012164D01*
X020214Y012179D01*
X020220Y012179D01*
X020220Y012195D01*
X020227Y012195D01*
X020227Y012220D01*
X020230Y012220D01*
X020230Y012235D01*
X020229Y012235D01*
X020229Y012248D01*
X020224Y012248D01*
X020224Y012258D01*
X020215Y012258D01*
X020215Y012267D01*
X020201Y012267D01*
X020201Y012281D01*
X020186Y012281D01*
X020186Y012305D01*
X020164Y012305D01*
X020164Y012338D01*
X020140Y012338D01*
X020140Y012374D01*
X020115Y012374D01*
X020115Y012413D01*
X020087Y012413D01*
X020087Y012456D01*
X020057Y012456D01*
X020057Y012496D01*
X020027Y012496D01*
X020027Y012529D01*
X020001Y012529D01*
X020001Y012557D01*
X019979Y012557D01*
X019979Y012582D01*
X019958Y012582D01*
X019958Y012602D01*
X019943Y012602D01*
X019943Y012614D01*
X019933Y012614D01*
X019933Y012629D01*
X019919Y012629D01*
X019919Y012655D01*
X019892Y012655D01*
X019892Y012689D01*
X019855Y012689D01*
X019855Y012727D01*
X019812Y012727D01*
X019812Y012775D01*
X019757Y012775D01*
X019757Y012812D01*
X019708Y012812D01*
X019708Y012840D01*
X019664Y012840D01*
X019664Y012866D01*
X019616Y012866D01*
X019616Y012931D01*
X019474Y012931D01*
X019474Y012989D01*
X019331Y012989D01*
X019331Y013032D01*
X019203Y013032D01*
X019203Y013055D01*
X019105Y013055D01*
X019105Y013059D01*
X019081Y013059D01*
X019081Y013066D01*
X019064Y013066D01*
X019064Y013080D01*
X019051Y013080D01*
X019051Y013103D01*
X019035Y013103D01*
X019035Y013119D01*
X019024Y013119D01*
X019024Y013135D01*
X019012Y013135D01*
X019012Y013148D01*
X019001Y013148D01*
X019001Y013155D01*
X018993Y013155D01*
X018993Y013165D01*
X018982Y013165D01*
X018982Y013183D01*
X018965Y013183D01*
X018965Y013206D01*
X018944Y013206D01*
X018944Y013233D01*
X018920Y013233D01*
X018920Y013255D01*
X018901Y013255D01*
X018901Y013271D01*
X018886Y013271D01*
X018886Y013283D01*
X018875Y013283D01*
X018875Y013291D01*
X018864Y013291D01*
X018864Y013297D01*
X018855Y013297D01*
X018855Y013299D01*
X018846Y013299D01*
X018846Y013301D01*
X018821Y013301D01*
X018821Y013305D01*
X018789Y013305D01*
X018789Y013316D01*
X018769Y013316D01*
X018769Y013332D01*
X018749Y013332D01*
X018749Y013348D01*
X018719Y013348D01*
X018719Y013366D01*
X018687Y013366D01*
X018687Y013385D01*
X018663Y013385D01*
X018663Y013403D01*
X018640Y013403D01*
X018640Y013418D01*
X018612Y013418D01*
X018612Y013435D01*
X018587Y013435D01*
X018587Y013473D01*
X018545Y013473D01*
X018545Y013531D01*
X018486Y013531D01*
X018486Y013611D01*
X018411Y013611D01*
X018411Y013686D01*
X018338Y013686D01*
X018338Y013775D01*
X018251Y013775D01*
X018251Y013872D01*
X018157Y013872D01*
X018157Y013972D01*
X018057Y013972D01*
X018057Y014070D01*
X017958Y014070D01*
X017958Y014164D01*
X017862Y014164D01*
X017862Y014246D01*
X017777Y014246D01*
X017777Y014314D01*
X017706Y014314D01*
X017706Y014354D01*
X017663Y014354D01*
X017663Y014400D01*
X017616Y014400D01*
X017616Y014443D01*
X017569Y014443D01*
X017569Y014481D01*
X017529Y014481D01*
X017529Y014521D01*
X017488Y014521D01*
X017488Y014567D01*
X017437Y014567D01*
X017437Y014618D01*
X017380Y014618D01*
X017380Y014673D01*
X017320Y014673D01*
X017320Y014728D01*
X017258Y014728D01*
X017258Y014780D01*
X017198Y014780D01*
X017198Y014828D01*
X017142Y014828D01*
X017142Y014869D01*
X017094Y014869D01*
X017094Y014896D01*
X017063Y014896D01*
X017063Y014921D01*
X017037Y014921D01*
X017037Y014940D01*
X017020Y014940D01*
X017020Y014951D01*
X017013Y014951D01*
X017013Y014966D01*
X017008Y014966D01*
X017008Y014996D01*
X016996Y014996D01*
X016996Y015036D01*
X016976Y015036D01*
X016976Y015083D01*
X016953Y015083D01*
X016953Y015165D01*
X016913Y015165D01*
X016913Y015230D01*
X016885Y015230D01*
X016885Y015281D01*
X016869Y015281D01*
X016869Y015321D01*
X016865Y015321D01*
X016865Y015342D01*
X016860Y015342D01*
X016860Y015377D01*
X016846Y015377D01*
X016846Y015424D01*
X016825Y015424D01*
X016825Y015479D01*
X016797Y015479D01*
X016797Y015538D01*
X016766Y015538D01*
X016766Y015600D01*
X016731Y015600D01*
X016731Y015661D01*
X016695Y015661D01*
X016695Y015719D01*
X016660Y015719D01*
X016660Y015878D01*
X016549Y015878D01*
X016549Y016033D01*
X016427Y016033D01*
X016427Y016180D01*
X016294Y016180D01*
X016294Y016318D01*
X016155Y016318D01*
X016155Y016444D01*
X016010Y016444D01*
X016010Y016557D01*
X015862Y016557D01*
X015862Y016655D01*
X015714Y016655D01*
X015714Y016736D01*
X015566Y016736D01*
X015566Y016773D01*
X015490Y016773D01*
X015490Y016801D01*
X015446Y016801D01*
X015446Y016827D01*
X015420Y016827D01*
X015420Y016864D01*
X015399Y016864D01*
X015399Y016883D01*
X015388Y016883D01*
X015388Y016900D01*
X015375Y016900D01*
X015375Y016916D01*
X015361Y016916D01*
X015361Y016926D01*
X015347Y016926D01*
X015347Y016946D01*
X015306Y016946D01*
X015306Y016964D01*
X015246Y016964D01*
X015246Y016982D01*
X015170Y016982D01*
X015170Y016998D01*
X015080Y016998D01*
X015080Y017012D01*
X014979Y017012D01*
X014979Y017025D01*
X014868Y017025D01*
X014868Y017036D01*
X014750Y017036D01*
X014750Y017044D01*
X014627Y017044D01*
X014627Y017050D01*
X014493Y017050D01*
X014493Y017088D01*
X014475Y017088D01*
X014475Y017120D01*
X014458Y017120D01*
X014458Y017142D01*
X014441Y017142D01*
X014441Y017143D01*
X014438Y017143D01*
X014438Y017144D01*
X014431Y017144D01*
X014431Y017145D01*
X014420Y017145D01*
X014420Y017146D01*
X014403Y017146D01*
X014412Y017156D02*
X014429Y017156D01*
X014429Y017155D01*
X014440Y017155D01*
X014440Y017154D01*
X014448Y017154D01*
X014448Y017153D01*
X014451Y017153D01*
X014451Y017151D01*
X014467Y017151D01*
X014467Y017129D01*
X014484Y017129D01*
X014484Y017098D01*
X014501Y017098D01*
X014501Y017059D01*
X014635Y017059D01*
X014635Y017053D01*
X014759Y017053D01*
X014759Y017045D01*
X014877Y017045D01*
X014877Y017035D01*
X014988Y017035D01*
X014988Y017022D01*
X015090Y017022D01*
X015090Y017007D01*
X015179Y017007D01*
X015179Y016991D01*
X015255Y016991D01*
X015255Y016973D01*
X015315Y016973D01*
X015315Y016954D01*
X015357Y016954D01*
X015357Y016935D01*
X015370Y016935D01*
X015370Y016925D01*
X015384Y016925D01*
X015384Y016910D01*
X015397Y016910D01*
X015397Y016892D01*
X015408Y016892D01*
X015408Y016874D01*
X015430Y016874D01*
X015430Y016837D01*
X015456Y016837D01*
X015456Y016810D01*
X015500Y016810D01*
X015500Y016783D01*
X015575Y016783D01*
X015575Y016745D01*
X015687Y016745D01*
X015687Y016684D01*
X015812Y016684D01*
X015812Y016606D01*
X015936Y016606D01*
X015936Y016519D01*
X016049Y016519D01*
X016049Y016430D01*
X016220Y016430D01*
X016220Y016274D01*
X016384Y016274D01*
X016384Y016100D01*
X016536Y016100D01*
X016536Y015916D01*
X016668Y015916D01*
X016668Y015728D01*
X016705Y015728D01*
X016705Y015671D01*
X016740Y015671D01*
X016740Y015609D01*
X016775Y015609D01*
X016775Y015548D01*
X016807Y015548D01*
X016807Y015488D01*
X016834Y015488D01*
X016834Y015433D01*
X016855Y015433D01*
X016855Y015387D01*
X016869Y015387D01*
X016869Y015351D01*
X016874Y015351D01*
X016874Y015330D01*
X016879Y015330D01*
X016879Y015290D01*
X016895Y015290D01*
X016895Y015239D01*
X016922Y015239D01*
X016922Y015174D01*
X016962Y015174D01*
X016962Y015092D01*
X016986Y015092D01*
X016986Y015046D01*
X017005Y015046D01*
X017005Y015005D01*
X017018Y015005D01*
X017018Y014975D01*
X017023Y014975D01*
X017023Y014961D01*
X017029Y014961D01*
X017029Y014950D01*
X017047Y014950D01*
X017047Y014931D01*
X017072Y014931D01*
X017072Y014906D01*
X017103Y014906D01*
X017103Y014878D01*
X017152Y014878D01*
X017152Y014837D01*
X017207Y014837D01*
X017207Y014789D01*
X017268Y014789D01*
X017268Y014737D01*
X017329Y014737D01*
X017329Y014682D01*
X017389Y014682D01*
X017389Y014628D01*
X017446Y014628D01*
X017446Y014576D01*
X017497Y014576D01*
X017497Y014529D01*
X017538Y014529D01*
X017538Y014491D01*
X017578Y014491D01*
X017578Y014453D01*
X017625Y014453D01*
X017625Y014409D01*
X017672Y014409D01*
X017672Y014364D01*
X017715Y014364D01*
X017715Y014324D01*
X017787Y014324D01*
X017787Y014256D01*
X017872Y014256D01*
X017872Y014173D01*
X017967Y014173D01*
X017967Y014080D01*
X018066Y014080D01*
X018066Y013981D01*
X018166Y013981D01*
X018166Y013881D01*
X018261Y013881D01*
X018261Y013785D01*
X018347Y013785D01*
X018347Y013696D01*
X018420Y013696D01*
X018420Y013620D01*
X018496Y013620D01*
X018496Y013540D01*
X018555Y013540D01*
X018555Y013482D01*
X018596Y013482D01*
X018596Y013445D01*
X018621Y013445D01*
X018621Y013428D01*
X018649Y013428D01*
X018649Y013412D01*
X018672Y013412D01*
X018672Y013394D01*
X018696Y013394D01*
X018696Y013375D01*
X018728Y013375D01*
X018728Y013358D01*
X018758Y013358D01*
X018758Y013342D01*
X018778Y013342D01*
X018778Y013325D01*
X018798Y013325D01*
X018798Y013314D01*
X018831Y013314D01*
X018831Y013310D01*
X018855Y013310D01*
X018855Y013309D01*
X018864Y013309D01*
X018864Y013305D01*
X018874Y013305D01*
X018874Y013301D01*
X018884Y013301D01*
X018884Y013292D01*
X018896Y013292D01*
X018896Y013281D01*
X018910Y013281D01*
X018910Y013264D01*
X018929Y013264D01*
X018929Y013242D01*
X018953Y013242D01*
X018953Y013216D01*
X018974Y013216D01*
X018974Y013192D01*
X018992Y013192D01*
X018992Y013174D01*
X019002Y013174D01*
X019002Y013165D01*
X019010Y013165D01*
X019010Y013157D01*
X019021Y013157D01*
X019021Y013145D01*
X019033Y013145D01*
X019033Y013129D01*
X019044Y013129D01*
X019044Y013111D01*
X019060Y013111D01*
X019060Y013089D01*
X019074Y013089D01*
X019074Y013075D01*
X019091Y013075D01*
X019091Y013068D01*
X019114Y013068D01*
X019114Y013063D01*
X019212Y013063D01*
X019212Y013041D01*
X019340Y013041D01*
X019340Y012998D01*
X019484Y012998D01*
X019484Y012941D01*
X019625Y012941D01*
X019625Y012875D01*
X019673Y012875D01*
X019673Y012849D01*
X019718Y012849D01*
X019718Y012820D01*
X019766Y012820D01*
X019766Y012784D01*
X019821Y012784D01*
X019821Y012737D01*
X019864Y012737D01*
X019864Y012698D01*
X019902Y012698D01*
X019902Y012664D01*
X019929Y012664D01*
X019929Y012638D01*
X019943Y012638D01*
X019943Y012624D01*
X019952Y012624D01*
X019952Y012611D01*
X019968Y012611D01*
X019968Y012591D01*
X019988Y012591D01*
X019988Y012566D01*
X020010Y012566D01*
X020010Y012538D01*
X020036Y012538D01*
X020036Y012506D01*
X020066Y012506D01*
X020066Y012466D01*
X020097Y012466D01*
X020097Y012423D01*
X020123Y012423D01*
X020123Y012383D01*
X020149Y012383D01*
X020149Y012347D01*
X020173Y012347D01*
X020173Y012315D01*
X020195Y012315D01*
X020195Y012291D01*
X020210Y012291D01*
X020210Y012277D01*
X020225Y012277D01*
X020225Y012267D01*
X020234Y012267D01*
X020234Y012256D01*
X020238Y012256D01*
X020238Y012241D01*
X020239Y012241D01*
X020239Y012220D01*
X020236Y012220D01*
X020236Y012188D01*
X020230Y012188D01*
X020230Y012170D01*
X020222Y012170D01*
X020222Y012153D01*
X020232Y012153D01*
X020232Y012136D01*
X020262Y012136D01*
X020262Y012116D01*
X020311Y012116D01*
X020311Y012094D01*
X014412Y017157D02*
X014412Y017156D01*
X003033Y015718D02*
X002933Y015718D01*
X002983Y015718D02*
X002983Y015868D01*
X002933Y015818D01*
X002886Y015843D02*
X002886Y015793D01*
X002861Y015768D01*
X002786Y015768D01*
X002786Y015718D02*
X002786Y015868D01*
X002861Y015868D01*
X002886Y015843D01*
X002738Y015868D02*
X002688Y015868D01*
X002713Y015868D02*
X002713Y015743D01*
X002688Y015718D01*
X002663Y015718D01*
X002638Y015743D01*
D11*
X003273Y016100D02*
X001139Y016109D01*
X001130Y011342D01*
X004657Y011332D01*
X004657Y010265D01*
X004657Y010073D01*
X004754Y010073D01*
X004715Y016090D02*
X003273Y016100D01*
X004715Y016090D02*
X004715Y017224D01*
X010733Y017214D01*
X010733Y017213D02*
X010720Y017264D01*
X010710Y017316D01*
X010705Y017369D01*
X010703Y017422D01*
X010705Y017474D01*
X010711Y017527D01*
X010721Y017579D01*
X010735Y017629D01*
X010753Y017679D01*
X010774Y017728D01*
X010799Y017774D01*
X010827Y017819D01*
X010859Y017861D01*
X010893Y017901D01*
X010930Y017938D01*
X010970Y017973D01*
X011013Y018004D01*
X011058Y018032D01*
X011104Y018057D01*
X011153Y018078D01*
X011202Y018095D01*
X011253Y018109D01*
X011305Y018119D01*
X011358Y018125D01*
X011410Y018127D01*
X011463Y018125D01*
X011516Y018119D01*
X011568Y018110D01*
X011619Y018096D01*
X011669Y018079D01*
X011717Y018058D01*
X011764Y018034D01*
X011809Y018006D01*
X011851Y017975D01*
X011891Y017940D01*
X011929Y017903D01*
X011964Y017863D01*
X011995Y017821D01*
X012024Y017777D01*
X012049Y017730D01*
X012070Y017682D01*
X012088Y017632D01*
X012102Y017581D01*
X012112Y017530D01*
X012119Y017477D01*
X012121Y017425D01*
X012119Y017372D01*
X012114Y017319D01*
X012105Y017267D01*
X012092Y017216D01*
X012091Y017216D02*
X014391Y017216D01*
X014404Y017147D01*
D12*
X009714Y014673D03*
X009714Y014648D03*
X009714Y014623D03*
X009727Y014248D03*
X009727Y014235D03*
X008952Y014348D03*
X008940Y014560D03*
X008727Y014185D03*
X008365Y014210D03*
X008402Y014735D03*
X007665Y013898D03*
X007840Y013748D03*
X007852Y013723D03*
X007840Y013485D03*
X008090Y013460D03*
X008365Y013460D03*
X008877Y013648D03*
X008877Y013773D03*
X008502Y012673D03*
X008502Y012660D03*
X008515Y012635D03*
X007565Y012423D03*
X006402Y014210D03*
X006402Y014685D03*
X006452Y015298D03*
X006140Y015298D03*
D13*
X006465Y015423D03*
X007165Y013873D03*
X007165Y013848D03*
X007165Y013823D03*
X007165Y013798D03*
X007690Y012435D03*
D14*
X008040Y012448D03*
X008040Y012473D03*
X008040Y012485D03*
D15*
X008040Y012460D03*
X008027Y015860D03*
D16*
X008033Y012598D03*
X008033Y012573D03*
X008033Y012548D03*
X008033Y012510D03*
X008033Y012498D03*
D17*
X008033Y012523D03*
X008033Y012535D03*
X008033Y012560D03*
X008033Y012585D03*
X008033Y012610D03*
D18*
X007552Y012623D03*
X008377Y013473D03*
X007827Y013760D03*
X007490Y013760D03*
X008365Y014198D03*
X008940Y014548D03*
X009714Y014635D03*
X009714Y014660D03*
X009727Y014260D03*
X006702Y016023D03*
X006402Y014448D03*
D19*
X008146Y012623D03*
D20*
X007540Y012635D03*
X007540Y012648D03*
X007527Y012673D03*
X007165Y013348D03*
X007165Y013373D03*
X007165Y013398D03*
X007165Y013423D03*
X007165Y013435D03*
X007165Y013448D03*
X007165Y013460D03*
X007165Y013485D03*
X007165Y013510D03*
X007165Y013535D03*
X007165Y013560D03*
X007165Y013585D03*
X007165Y013598D03*
X007165Y013623D03*
X007165Y013648D03*
X007165Y013673D03*
X007165Y013698D03*
X007165Y013723D03*
X007165Y013748D03*
X007165Y013773D03*
X007452Y013673D03*
X007452Y013560D03*
X007865Y013560D03*
X007865Y013673D03*
X008065Y013673D03*
X008065Y013698D03*
X008065Y013723D03*
X008065Y013748D03*
X008065Y013773D03*
X008065Y013785D03*
X008065Y013810D03*
X008065Y013835D03*
X008065Y013860D03*
X008065Y013885D03*
X008065Y013898D03*
X008065Y013648D03*
X008065Y013623D03*
X008065Y013598D03*
X008065Y013585D03*
X008065Y013560D03*
X008065Y013535D03*
X008065Y013510D03*
X008077Y013485D03*
X008390Y013510D03*
X008402Y013560D03*
X008402Y013585D03*
X008402Y013598D03*
X008402Y013623D03*
X008402Y013648D03*
X008402Y013673D03*
X008402Y013698D03*
X008402Y013723D03*
X008402Y013748D03*
X008402Y013773D03*
X008402Y013785D03*
X008402Y013810D03*
X008402Y013835D03*
X008402Y013860D03*
X008402Y013885D03*
X008402Y013898D03*
X008615Y013773D03*
X008615Y013748D03*
X008615Y013723D03*
X008615Y013698D03*
X008615Y013673D03*
X008615Y013648D03*
X008615Y013535D03*
X008615Y013510D03*
X008615Y013485D03*
X008615Y013460D03*
X008615Y013448D03*
X008615Y013435D03*
X008615Y013423D03*
X008615Y013398D03*
X008615Y013373D03*
X008615Y013348D03*
X008827Y013510D03*
X008815Y013535D03*
X008865Y013448D03*
X008877Y013423D03*
X008902Y013698D03*
X008902Y013723D03*
X008902Y013748D03*
X009152Y014185D03*
X008952Y014323D03*
X009152Y014723D03*
X009702Y014723D03*
X009702Y014735D03*
X009714Y014185D03*
X008415Y014698D03*
X008352Y014248D03*
X008102Y015173D03*
X008102Y015198D03*
X008102Y015223D03*
X008102Y015248D03*
X008102Y015385D03*
X008102Y015410D03*
X008102Y015435D03*
X008102Y015460D03*
X008102Y015473D03*
X007702Y015473D03*
X007702Y015485D03*
X007702Y015460D03*
X007702Y015435D03*
X007702Y015410D03*
X007702Y015385D03*
X007702Y015360D03*
X007702Y015348D03*
X007702Y015323D03*
X007702Y015298D03*
X007702Y015273D03*
X007702Y015248D03*
X007702Y015223D03*
X007702Y015198D03*
X007702Y015173D03*
X007702Y015510D03*
X007702Y015523D03*
X007702Y015548D03*
X007702Y015573D03*
X007702Y015598D03*
X007390Y014723D03*
X007190Y014323D03*
X007390Y014185D03*
X006915Y014685D03*
X006665Y014348D03*
X006390Y014248D03*
X006390Y014235D03*
X006390Y014648D03*
D21*
X006909Y014623D03*
X008671Y014623D03*
X008671Y014273D03*
X007746Y012635D03*
D22*
X007996Y012635D03*
X007996Y012648D03*
X007996Y012660D03*
X007996Y012673D03*
X007996Y012698D03*
X007996Y012723D03*
X007996Y012748D03*
X007996Y012860D03*
X007996Y012885D03*
X007996Y012910D03*
X008371Y014185D03*
X008946Y014535D03*
X009733Y014273D03*
D23*
X009183Y014223D03*
X009183Y014685D03*
X008446Y014598D03*
X008321Y014348D03*
X007421Y014223D03*
X007421Y014685D03*
X006909Y014648D03*
X008258Y012885D03*
X008258Y012648D03*
X008258Y012635D03*
D24*
X008240Y012698D03*
X007752Y012698D03*
X007752Y012673D03*
X007752Y012660D03*
X007752Y012648D03*
X007665Y014185D03*
X007665Y014210D03*
X007665Y014223D03*
X007665Y014235D03*
X007665Y014248D03*
X007665Y014273D03*
X007665Y014298D03*
X007665Y014323D03*
X007665Y014348D03*
X007665Y014373D03*
X007665Y014385D03*
X007665Y014410D03*
X007665Y014435D03*
X007665Y014460D03*
X007665Y014485D03*
X007665Y014510D03*
X007665Y014535D03*
X007665Y014560D03*
X007665Y014573D03*
X007665Y014598D03*
X007665Y014623D03*
X007665Y014648D03*
X007665Y014673D03*
X007665Y014685D03*
X007665Y014698D03*
X007665Y014723D03*
X007440Y014648D03*
X006915Y014273D03*
X008665Y014298D03*
X008665Y014598D03*
D25*
X008946Y014573D03*
X009708Y014685D03*
X009708Y014698D03*
X008858Y013460D03*
X008908Y013373D03*
X008921Y013348D03*
X008396Y013535D03*
X007858Y013535D03*
X007858Y013698D03*
X007471Y013723D03*
X007446Y013648D03*
X007446Y013623D03*
X007446Y013598D03*
X007446Y013585D03*
X007471Y013510D03*
X007533Y012698D03*
X008508Y012648D03*
X007183Y014573D03*
X006396Y014673D03*
X006396Y014460D03*
X006396Y014223D03*
D26*
X006384Y014485D03*
X006384Y014510D03*
X006384Y014623D03*
X007071Y016035D03*
X006846Y016148D03*
X008421Y014685D03*
X008421Y014673D03*
X008346Y014273D03*
X007533Y012660D03*
D27*
X008252Y012660D03*
X008252Y012860D03*
X008252Y012910D03*
X008315Y014373D03*
X008315Y014385D03*
X008090Y014410D03*
X008090Y014435D03*
X008090Y014460D03*
X008090Y014485D03*
X008677Y014648D03*
X008952Y014298D03*
X007427Y014235D03*
X007190Y014298D03*
X007427Y014673D03*
X006665Y014623D03*
X006452Y015248D03*
D28*
X006059Y015173D03*
X007433Y014248D03*
X007671Y014735D03*
X008308Y014410D03*
X008458Y014535D03*
X009196Y014248D03*
X008058Y012835D03*
X008058Y012810D03*
X008058Y012798D03*
X008058Y012773D03*
X008246Y012673D03*
D29*
X007527Y012685D03*
X007165Y013360D03*
X007165Y013385D03*
X007165Y013410D03*
X007165Y013473D03*
X007165Y013498D03*
X007165Y013523D03*
X007165Y013548D03*
X007165Y013573D03*
X007165Y013610D03*
X007165Y013635D03*
X007165Y013660D03*
X007165Y013685D03*
X007165Y013710D03*
X007165Y013735D03*
X007165Y013760D03*
X007452Y013685D03*
X007452Y013660D03*
X007452Y013573D03*
X007865Y013548D03*
X007865Y013685D03*
X008065Y013685D03*
X008065Y013660D03*
X008065Y013635D03*
X008065Y013610D03*
X008065Y013573D03*
X008065Y013548D03*
X008065Y013523D03*
X008065Y013710D03*
X008065Y013735D03*
X008065Y013760D03*
X008065Y013798D03*
X008065Y013823D03*
X008065Y013848D03*
X008065Y013873D03*
X008402Y013873D03*
X008402Y013848D03*
X008402Y013823D03*
X008402Y013798D03*
X008402Y013760D03*
X008402Y013735D03*
X008402Y013710D03*
X008402Y013685D03*
X008402Y013660D03*
X008402Y013635D03*
X008402Y013610D03*
X008402Y013573D03*
X008390Y013523D03*
X008390Y013498D03*
X008615Y013498D03*
X008615Y013523D03*
X008615Y013473D03*
X008615Y013410D03*
X008615Y013385D03*
X008615Y013360D03*
X008852Y013473D03*
X008840Y013498D03*
X008902Y013385D03*
X008915Y013360D03*
X008927Y013335D03*
X008890Y013660D03*
X008902Y013685D03*
X008902Y013710D03*
X008902Y013735D03*
X008615Y013735D03*
X008615Y013710D03*
X008615Y013685D03*
X008615Y013660D03*
X008615Y013760D03*
X008715Y014198D03*
X008715Y014710D03*
X008102Y015185D03*
X008102Y015210D03*
X008102Y015235D03*
X008102Y015260D03*
X008102Y015398D03*
X008102Y015423D03*
X008102Y015448D03*
X007702Y015448D03*
X007702Y015423D03*
X007702Y015398D03*
X007702Y015373D03*
X007702Y015335D03*
X007702Y015310D03*
X007702Y015285D03*
X007702Y015260D03*
X007702Y015235D03*
X007702Y015210D03*
X007702Y015185D03*
X007702Y015498D03*
X007702Y015535D03*
X007702Y015560D03*
X007702Y015585D03*
X006452Y015285D03*
X006390Y014660D03*
X006390Y014473D03*
X006665Y014335D03*
X009714Y014198D03*
X009714Y014173D03*
D30*
X008665Y014310D03*
X008665Y014610D03*
X007665Y014610D03*
X007665Y014585D03*
X007665Y014548D03*
X007665Y014523D03*
X007665Y014498D03*
X007665Y014473D03*
X007665Y014448D03*
X007665Y014423D03*
X007665Y014398D03*
X007665Y014360D03*
X007665Y014335D03*
X007665Y014310D03*
X007665Y014285D03*
X007665Y014260D03*
X007665Y014198D03*
X007440Y014260D03*
X007440Y014635D03*
X007665Y014635D03*
X007665Y014660D03*
X007665Y014710D03*
X006902Y014610D03*
X006915Y014285D03*
X006040Y015148D03*
X006465Y015235D03*
X008077Y013010D03*
X008240Y012710D03*
X007752Y012685D03*
D31*
X007996Y012685D03*
X007996Y012710D03*
X007996Y012735D03*
X007996Y012760D03*
X007996Y012848D03*
X007996Y012873D03*
X007996Y012898D03*
X007996Y012923D03*
X008946Y014360D03*
X009733Y014285D03*
D32*
X009196Y014660D03*
X008458Y014548D03*
X008308Y014398D03*
X007671Y014173D03*
X007433Y014660D03*
X008246Y012923D03*
X008058Y012823D03*
X008058Y012785D03*
X008246Y012685D03*
D33*
X008496Y012685D03*
X007821Y013473D03*
X007496Y013473D03*
X007183Y014360D03*
X006809Y014523D03*
D34*
X007177Y014535D03*
X007377Y014735D03*
X006527Y013998D03*
X007502Y013773D03*
X008490Y012698D03*
X009502Y013935D03*
X008952Y014373D03*
D35*
X008946Y014335D03*
X009708Y014710D03*
X008883Y013410D03*
X008396Y013548D03*
X008233Y013335D03*
X008071Y013498D03*
X007858Y013523D03*
X007858Y013710D03*
X007471Y013735D03*
X007446Y013635D03*
X007446Y013610D03*
X007183Y014335D03*
X006146Y015310D03*
X007533Y012710D03*
D36*
X007746Y012710D03*
X008671Y014285D03*
D37*
X008377Y014173D03*
X009139Y014173D03*
X009514Y013985D03*
X008490Y012710D03*
X007377Y014173D03*
X006415Y014198D03*
X006415Y014710D03*
X006140Y015285D03*
D38*
X006409Y014698D03*
X006409Y014435D03*
X006921Y014698D03*
X007183Y014373D03*
X007183Y014348D03*
X008733Y014723D03*
X009146Y014735D03*
X007546Y012723D03*
X006846Y016135D03*
D39*
X008083Y014510D03*
X008683Y014248D03*
X006921Y014248D03*
X007733Y012723D03*
D40*
X008071Y012935D03*
X008071Y012960D03*
X008071Y012985D03*
X008071Y012998D03*
X008233Y012723D03*
X007446Y014273D03*
X007446Y014623D03*
X006909Y014598D03*
X006034Y015135D03*
X008108Y014735D03*
X008108Y014723D03*
X008108Y014698D03*
X008108Y014685D03*
X008108Y014673D03*
X008108Y014648D03*
X008108Y014623D03*
X008296Y014435D03*
X009208Y014273D03*
X009208Y014623D03*
D41*
X009521Y014023D03*
X009521Y013998D03*
X009508Y013973D03*
X009508Y013948D03*
X009483Y013860D03*
X009458Y013785D03*
X009433Y013723D03*
X008483Y012723D03*
X007808Y013460D03*
X007508Y013460D03*
X006584Y013785D03*
X006571Y013835D03*
X006559Y013860D03*
X006559Y013885D03*
X006546Y013898D03*
X006546Y013910D03*
X006546Y013935D03*
X006534Y013948D03*
X006534Y013973D03*
X006521Y014023D03*
X006146Y015198D03*
X006709Y016010D03*
D42*
X008190Y015373D03*
X008190Y015335D03*
X008190Y015310D03*
X008190Y015285D03*
X008990Y015498D03*
X009002Y013135D03*
X007615Y012735D03*
D43*
X008071Y012948D03*
X008071Y012973D03*
X008233Y012735D03*
X007446Y014285D03*
X007446Y014610D03*
X006871Y014473D03*
X006109Y015123D03*
X008108Y014710D03*
X008108Y014660D03*
X008108Y014635D03*
X008296Y014448D03*
X008471Y014498D03*
X009208Y014610D03*
X009208Y014285D03*
D44*
X009521Y014010D03*
X009508Y013960D03*
X009483Y013873D03*
X009458Y013798D03*
X008483Y012735D03*
X006584Y013798D03*
X006571Y013823D03*
X006559Y013873D03*
X006546Y013923D03*
X006534Y013960D03*
X006534Y013985D03*
X006521Y014010D03*
X006421Y014423D03*
X006146Y015185D03*
X006446Y015310D03*
D45*
X006115Y015223D03*
X007040Y015485D03*
X008190Y015360D03*
X008190Y015348D03*
X008190Y015323D03*
X008190Y015298D03*
X008190Y015273D03*
X009002Y015485D03*
X008702Y013885D03*
X008990Y013123D03*
X008977Y013110D03*
X007615Y012748D03*
X007065Y013110D03*
D46*
X008115Y014185D03*
X008115Y014210D03*
X008115Y014223D03*
X008115Y014235D03*
X008115Y014248D03*
X008115Y014273D03*
X008652Y014348D03*
X008652Y014373D03*
X008652Y014385D03*
X008652Y014410D03*
X008652Y014510D03*
X008652Y014535D03*
X006915Y014298D03*
X006190Y015110D03*
X005940Y015198D03*
X006465Y015223D03*
X008227Y012748D03*
D47*
X008477Y012748D03*
X009389Y013623D03*
X009414Y013673D03*
X009427Y013698D03*
X009439Y013748D03*
X009452Y013773D03*
X009464Y013810D03*
X009489Y013885D03*
X008740Y014735D03*
X009389Y014998D03*
X009414Y014948D03*
X006652Y013623D03*
X006640Y013648D03*
X006627Y013673D03*
X006615Y013698D03*
X006615Y013723D03*
X006602Y013748D03*
X006590Y013773D03*
X006427Y014185D03*
X006427Y014723D03*
X006127Y015273D03*
D48*
X006784Y015260D03*
X007121Y015973D03*
X006921Y014173D03*
X007608Y012760D03*
X008571Y012823D03*
X008946Y013085D03*
D49*
X008221Y012760D03*
X007458Y014335D03*
X007458Y014360D03*
X007458Y014548D03*
X006884Y014448D03*
X006909Y014335D03*
X006909Y014310D03*
X006184Y015098D03*
X006084Y015098D03*
X005996Y015098D03*
X008283Y014498D03*
X008483Y014448D03*
X008646Y014448D03*
X008646Y014473D03*
X008646Y014423D03*
X009221Y014360D03*
X009221Y014335D03*
X009221Y014548D03*
D50*
X009321Y015123D03*
X009321Y013498D03*
X008483Y012760D03*
D51*
X008890Y013048D03*
X008227Y013398D03*
X008727Y013860D03*
X008215Y015160D03*
X008215Y015485D03*
X008215Y015510D03*
X008215Y015523D03*
X008215Y015548D03*
X008215Y015573D03*
X008215Y015598D03*
X008890Y015573D03*
X007152Y015573D03*
X007590Y012773D03*
D52*
X006890Y013273D03*
X008490Y012773D03*
X009140Y013260D03*
X009152Y013273D03*
X008677Y013898D03*
X006702Y015985D03*
X006127Y015248D03*
D53*
X006802Y015310D03*
X007215Y015610D03*
X008827Y015610D03*
X009602Y014610D03*
X008740Y013610D03*
X008227Y013410D03*
X007577Y012785D03*
D54*
X008508Y012785D03*
X009046Y013173D03*
X009046Y015448D03*
X007133Y015998D03*
X006996Y015448D03*
D55*
X006490Y015385D03*
X006465Y015410D03*
X008790Y015635D03*
X009614Y014298D03*
X008752Y013785D03*
X008227Y013435D03*
X007640Y013148D03*
X007565Y012798D03*
D56*
X008227Y013373D03*
X008552Y012810D03*
X008527Y012798D03*
X007027Y015473D03*
X006702Y015960D03*
D57*
X007302Y015660D03*
X008740Y015660D03*
X007665Y013810D03*
X007652Y013423D03*
X007165Y013785D03*
X007165Y013810D03*
X007165Y013835D03*
X007165Y013860D03*
X007165Y013885D03*
X007552Y012810D03*
D58*
X007540Y012823D03*
X007665Y013798D03*
D59*
X007527Y012835D03*
D60*
X008240Y012835D03*
X007452Y014298D03*
X007452Y014323D03*
X007452Y014560D03*
X007452Y014573D03*
X007452Y014598D03*
X006902Y014573D03*
X006877Y014460D03*
X006090Y015110D03*
X008290Y014460D03*
X008477Y014485D03*
X009214Y014560D03*
X009214Y014573D03*
X009214Y014598D03*
X009214Y014323D03*
X009214Y014298D03*
D61*
X008721Y013585D03*
X008583Y012835D03*
X007146Y013048D03*
X006496Y014385D03*
X007808Y015060D03*
X007808Y015085D03*
X007808Y015110D03*
X007808Y015135D03*
X006709Y015948D03*
D62*
X007515Y012848D03*
D63*
X008252Y012848D03*
X008252Y012898D03*
X008677Y014260D03*
X008677Y014635D03*
X008090Y014498D03*
X008090Y014473D03*
X008090Y014448D03*
X008090Y014423D03*
X006915Y014260D03*
X006677Y014285D03*
X006915Y014635D03*
X006840Y016160D03*
D64*
X007165Y013035D03*
X008602Y012848D03*
X008877Y013035D03*
D65*
X007502Y012860D03*
D66*
X007665Y013835D03*
X008615Y012860D03*
D67*
X007490Y012873D03*
X008577Y015723D03*
D68*
X008946Y014610D03*
X008446Y014585D03*
X008321Y014360D03*
X007183Y014610D03*
X007009Y016073D03*
X008258Y012873D03*
D69*
X008621Y012873D03*
X008746Y013635D03*
X008746Y013823D03*
X006496Y015373D03*
D70*
X007483Y012885D03*
D71*
X008633Y012885D03*
D72*
X007471Y012898D03*
D73*
X008646Y012898D03*
D74*
X008683Y012985D03*
X007458Y012910D03*
X008533Y015735D03*
D75*
X008652Y012910D03*
D76*
X007452Y012923D03*
X007427Y015723D03*
D77*
X008665Y012923D03*
D78*
X007440Y012935D03*
X006477Y015523D03*
D79*
X008665Y012935D03*
D80*
X007433Y012948D03*
X006484Y015535D03*
D81*
X008677Y012948D03*
D82*
X007427Y012960D03*
X006490Y015548D03*
D83*
X007402Y015710D03*
X008677Y012960D03*
D84*
X007415Y012973D03*
D85*
X008683Y012973D03*
D86*
X007408Y012985D03*
X006509Y015573D03*
X006809Y015873D03*
D87*
X006840Y015898D03*
X006690Y015760D03*
X006665Y015735D03*
X006640Y015710D03*
X006615Y015685D03*
X006590Y015660D03*
X006577Y015648D03*
X006565Y015635D03*
X006552Y015623D03*
X006527Y015598D03*
X008027Y015923D03*
X007402Y012998D03*
D88*
X006665Y013598D03*
X006577Y013810D03*
X006665Y015010D03*
X008452Y012998D03*
X009377Y013598D03*
X009402Y013648D03*
X009402Y014973D03*
D89*
X009602Y014598D03*
X008740Y013835D03*
X008815Y012998D03*
X007652Y013398D03*
X006515Y014373D03*
X006515Y015348D03*
X006502Y015360D03*
D90*
X007202Y013010D03*
D91*
X007615Y013010D03*
X008940Y015535D03*
D92*
X009164Y013285D03*
X008427Y013010D03*
X006877Y013285D03*
D93*
X008833Y013010D03*
D94*
X008733Y013598D03*
X009033Y014385D03*
X009033Y014410D03*
X009033Y014435D03*
X009033Y014460D03*
X009033Y014485D03*
X009033Y014510D03*
X008221Y015035D03*
X008221Y015060D03*
X008221Y015085D03*
X008221Y015110D03*
X008221Y015135D03*
X008846Y015598D03*
X007196Y015598D03*
X007271Y014510D03*
X007271Y014485D03*
X007271Y014460D03*
X007271Y014435D03*
X007271Y014410D03*
X007271Y014385D03*
X007183Y013023D03*
D95*
X007990Y013123D03*
X008002Y013098D03*
X008002Y013073D03*
X008002Y013048D03*
X008002Y013023D03*
D96*
X008858Y013023D03*
X006796Y015298D03*
D97*
X008002Y013085D03*
X008002Y013060D03*
X008002Y013035D03*
D98*
X007658Y013385D03*
X007133Y013060D03*
X008908Y013060D03*
X007808Y015048D03*
X007808Y015073D03*
X007808Y015098D03*
X007808Y015123D03*
X007808Y015148D03*
X007133Y015560D03*
X006796Y015285D03*
X008908Y015560D03*
D99*
X008927Y015548D03*
X007115Y015548D03*
X006790Y015273D03*
X007115Y013073D03*
X008927Y013073D03*
D100*
X007096Y013085D03*
D101*
X007083Y013098D03*
X007046Y013123D03*
X007658Y013373D03*
X007658Y013860D03*
X006921Y014735D03*
X007071Y015510D03*
X007083Y015523D03*
X007108Y015960D03*
X007133Y015985D03*
X008958Y015523D03*
X008708Y013560D03*
X008958Y013098D03*
D102*
X007996Y013110D03*
D103*
X007027Y013135D03*
X006102Y015210D03*
X007052Y015498D03*
D104*
X007858Y013135D03*
D105*
X007021Y013148D03*
X007009Y013160D03*
X009021Y013148D03*
X009033Y013160D03*
X009058Y015435D03*
X009033Y015460D03*
X009021Y015473D03*
X008021Y015960D03*
X007009Y015460D03*
X006984Y015435D03*
D106*
X006965Y015423D03*
X006940Y015398D03*
X006852Y016098D03*
X009077Y015423D03*
X009102Y015398D03*
X007665Y013873D03*
X006940Y013223D03*
X006965Y013198D03*
X006990Y013173D03*
X009077Y013198D03*
X009102Y013223D03*
X009127Y013248D03*
D107*
X009115Y013235D03*
X009090Y013210D03*
X009065Y013185D03*
X006977Y013185D03*
X006952Y013210D03*
X009115Y015385D03*
X009090Y015410D03*
X006952Y015410D03*
D108*
X006765Y014560D03*
X006927Y013235D03*
D109*
X006909Y013248D03*
X007658Y013360D03*
X008233Y013360D03*
X006759Y014548D03*
X006459Y014398D03*
X006121Y015235D03*
X006884Y015335D03*
X006921Y015373D03*
X009121Y015373D03*
X009158Y015335D03*
D110*
X009189Y015298D03*
X009214Y013348D03*
X009189Y013323D03*
X006902Y013260D03*
X006827Y013348D03*
X006877Y015323D03*
X006852Y016110D03*
D111*
X006452Y015335D03*
X006790Y015235D03*
X006840Y013335D03*
X006865Y013298D03*
X009177Y013298D03*
X009202Y013335D03*
X009202Y015285D03*
X009177Y015310D03*
D112*
X009208Y015273D03*
X009233Y015248D03*
X007996Y014598D03*
X007996Y014573D03*
X007996Y014560D03*
X007996Y014535D03*
X007996Y014385D03*
X007996Y014373D03*
X007996Y014348D03*
X007996Y014323D03*
X009183Y013310D03*
X009233Y013373D03*
X009271Y013423D03*
X006859Y013310D03*
X006846Y013323D03*
X006809Y013373D03*
X006771Y013423D03*
X006771Y014535D03*
X006446Y014735D03*
X006796Y015223D03*
D113*
X006165Y015148D03*
X006377Y014585D03*
X006377Y014548D03*
X006377Y014523D03*
X006377Y014285D03*
X006665Y014585D03*
X007402Y014710D03*
X007402Y014198D03*
X007165Y013335D03*
X008340Y014285D03*
X008952Y014310D03*
X009165Y014198D03*
X009165Y014710D03*
X008615Y013335D03*
D114*
X008821Y013523D03*
X008896Y013760D03*
X008083Y013473D03*
X007871Y013573D03*
X007871Y013610D03*
X007871Y013635D03*
X007871Y013660D03*
X007846Y013735D03*
X007846Y013498D03*
X007658Y013335D03*
X007458Y013523D03*
X007458Y013548D03*
X007458Y013710D03*
X008408Y014710D03*
D115*
X009308Y015135D03*
X009358Y015060D03*
X009371Y015035D03*
X009371Y015023D03*
X009383Y015010D03*
X009696Y014510D03*
X009371Y013585D03*
X009358Y013560D03*
X009346Y013535D03*
X008233Y013348D03*
X007658Y013348D03*
X006696Y013535D03*
X006684Y013560D03*
X006671Y013585D03*
X006434Y014410D03*
X006659Y014998D03*
X006671Y015023D03*
X006671Y015035D03*
X006684Y015060D03*
X006709Y015085D03*
X006721Y015110D03*
X006734Y015135D03*
D116*
X006446Y014173D03*
X006796Y013385D03*
X006821Y013360D03*
X007996Y014310D03*
X007996Y014335D03*
X007996Y014360D03*
X007996Y014398D03*
X007996Y014523D03*
X007996Y014548D03*
X007996Y014585D03*
X007996Y014610D03*
X009221Y015260D03*
X009246Y015235D03*
X009258Y015210D03*
X009258Y013410D03*
X009246Y013385D03*
X009221Y013360D03*
D117*
X008715Y013548D03*
X008715Y013573D03*
X008715Y013873D03*
X008227Y013385D03*
X007102Y015535D03*
D118*
X006777Y015198D03*
X006452Y015323D03*
X007665Y013885D03*
X006790Y013398D03*
X006765Y013435D03*
X006715Y013510D03*
X009277Y013435D03*
X009289Y013448D03*
X009314Y013485D03*
X009327Y013510D03*
X009702Y014410D03*
X009702Y014435D03*
X009702Y014460D03*
X009702Y014485D03*
X009327Y015110D03*
X009289Y015160D03*
X009289Y015173D03*
X009264Y015198D03*
D119*
X008408Y014723D03*
X008358Y014235D03*
X008358Y014223D03*
X007871Y013648D03*
X007871Y013623D03*
X007871Y013598D03*
X007871Y013585D03*
X007846Y013510D03*
X007458Y013535D03*
X007458Y013698D03*
X006921Y014210D03*
X008383Y013485D03*
X008846Y013485D03*
X008871Y013435D03*
X008896Y013398D03*
X009721Y014210D03*
X009721Y014223D03*
D120*
X009339Y015085D03*
X009252Y015223D03*
X008002Y014298D03*
X006752Y013460D03*
X006752Y013448D03*
X006727Y013485D03*
X006752Y015160D03*
X006752Y015173D03*
X009252Y013398D03*
D121*
X006784Y013410D03*
X006784Y015210D03*
D122*
X007658Y013410D03*
D123*
X008233Y013423D03*
X008746Y013623D03*
X008746Y013810D03*
X008808Y015623D03*
X007258Y015635D03*
X007233Y015623D03*
D124*
X007658Y013435D03*
D125*
X007658Y013448D03*
X007658Y013785D03*
X006471Y015435D03*
D126*
X007283Y015648D03*
X008233Y013448D03*
X009621Y014323D03*
X009621Y014348D03*
X009621Y014373D03*
X009621Y014385D03*
D127*
X009296Y013460D03*
D128*
X009302Y013473D03*
X009702Y014423D03*
X009702Y014448D03*
X009702Y014473D03*
X009302Y015148D03*
X009277Y015185D03*
X007127Y016023D03*
X006765Y015185D03*
X006740Y015148D03*
X006127Y015260D03*
X006740Y013473D03*
D129*
X007477Y013485D03*
X007477Y013748D03*
X007177Y014560D03*
D130*
X006684Y015048D03*
X006696Y015073D03*
X006709Y015098D03*
X006709Y015998D03*
X006846Y016123D03*
X006659Y013610D03*
X006684Y013573D03*
X006696Y013548D03*
X006709Y013523D03*
X006721Y013498D03*
X009333Y013523D03*
X009346Y013548D03*
X009358Y013573D03*
X009383Y013610D03*
X009396Y013635D03*
X009696Y014498D03*
X009358Y015048D03*
X009346Y015073D03*
X009333Y015098D03*
D131*
X007477Y013498D03*
X007177Y014548D03*
D132*
X006565Y013848D03*
X006602Y013735D03*
X006615Y013710D03*
X006627Y013685D03*
X006640Y013660D03*
X006652Y013635D03*
X008740Y014173D03*
X009427Y013710D03*
X009414Y013685D03*
X009439Y013735D03*
X009477Y013848D03*
X009389Y014985D03*
D133*
X009402Y014960D03*
X009402Y013660D03*
D134*
X008896Y013673D03*
X008708Y014698D03*
X006921Y014223D03*
X006671Y014323D03*
X006759Y016085D03*
D135*
X006921Y014710D03*
X006921Y014198D03*
X006596Y013760D03*
X009446Y013760D03*
X009471Y013823D03*
X009496Y013923D03*
D136*
X007815Y013773D03*
D137*
X007665Y013823D03*
X008752Y013798D03*
X006527Y014360D03*
X006477Y015398D03*
D138*
X009496Y013910D03*
X009496Y013898D03*
X009471Y013835D03*
D139*
X008215Y015498D03*
X008215Y015535D03*
X008215Y015560D03*
X008215Y015585D03*
X007177Y015585D03*
X007665Y013848D03*
D140*
X007271Y014398D03*
X007271Y014423D03*
X007271Y014448D03*
X007271Y014473D03*
X007271Y014498D03*
X007271Y014523D03*
X008221Y015048D03*
X008221Y015073D03*
X008221Y015098D03*
X008221Y015123D03*
X008221Y015148D03*
X008871Y015585D03*
X009033Y014523D03*
X009033Y014498D03*
X009033Y014473D03*
X009033Y014448D03*
X009033Y014423D03*
X009033Y014398D03*
X008733Y013848D03*
D141*
X007165Y013898D03*
X008765Y015648D03*
D142*
X008015Y014885D03*
X008027Y014035D03*
D143*
X008027Y014048D03*
X008027Y014060D03*
X008027Y014835D03*
D144*
X008033Y014810D03*
X008033Y014785D03*
X008033Y014085D03*
X008033Y014073D03*
D145*
X008033Y014098D03*
X008033Y014798D03*
D146*
X008040Y014760D03*
X008040Y014110D03*
D147*
X008040Y014123D03*
X008040Y014773D03*
D148*
X008046Y014160D03*
X008046Y014135D03*
D149*
X008046Y014148D03*
X008046Y014748D03*
D150*
X008115Y014285D03*
X008115Y014260D03*
X008115Y014198D03*
X008115Y014173D03*
X008652Y014360D03*
X008652Y014398D03*
X008652Y014498D03*
X008652Y014523D03*
X008652Y014548D03*
D151*
X006921Y014723D03*
X006921Y014185D03*
D152*
X007415Y014210D03*
X007415Y014698D03*
X006665Y015323D03*
X006977Y016085D03*
X008690Y014673D03*
X008690Y014235D03*
X009177Y014210D03*
X009177Y014698D03*
D153*
X008702Y014685D03*
X008702Y014210D03*
X008340Y014298D03*
X006915Y014673D03*
X006840Y014510D03*
X006665Y014573D03*
X006665Y014598D03*
X006377Y014598D03*
X006377Y014573D03*
X006377Y014560D03*
X006377Y014535D03*
X006377Y014298D03*
X006377Y014273D03*
X006152Y015135D03*
X006165Y015160D03*
X006177Y015173D03*
X006152Y015323D03*
X006452Y015273D03*
D154*
X007146Y015760D03*
X006721Y016060D03*
X008696Y014223D03*
X008946Y014598D03*
D155*
X008433Y014623D03*
X008333Y014323D03*
X007183Y014598D03*
X006921Y014235D03*
X006671Y014298D03*
X006371Y014323D03*
X006371Y014348D03*
D156*
X008452Y014560D03*
X008452Y014573D03*
X009189Y014673D03*
X009189Y014235D03*
D157*
X008946Y014585D03*
X008346Y014260D03*
X007183Y014585D03*
X006384Y014610D03*
X006384Y014635D03*
X006384Y014498D03*
X006384Y014260D03*
D158*
X006190Y015123D03*
X008302Y014423D03*
X008465Y014523D03*
X009202Y014635D03*
X009202Y014260D03*
D159*
X008433Y014635D03*
X008333Y014310D03*
X007183Y014310D03*
X006371Y014310D03*
X006371Y014335D03*
X006159Y015335D03*
X006734Y016073D03*
D160*
X006709Y016048D03*
X006671Y014310D03*
D161*
X006902Y014585D03*
X007452Y014585D03*
X007452Y014310D03*
X008290Y014473D03*
X008477Y014473D03*
X009214Y014585D03*
X009214Y014310D03*
X006015Y015123D03*
D162*
X009621Y014398D03*
X009621Y014360D03*
X009621Y014335D03*
X009621Y014310D03*
D163*
X009221Y014348D03*
X009221Y014373D03*
X009221Y014535D03*
X008646Y014485D03*
X008646Y014460D03*
X008646Y014435D03*
X008483Y014460D03*
X008283Y014485D03*
X007458Y014535D03*
X007458Y014373D03*
X007458Y014348D03*
X006909Y014323D03*
X006009Y015110D03*
D164*
X006134Y015348D03*
X008658Y014573D03*
X008658Y014560D03*
X008658Y014323D03*
D165*
X008327Y014335D03*
X006915Y014660D03*
X006665Y014610D03*
X006452Y015260D03*
X006665Y015335D03*
X007152Y015773D03*
X007052Y016048D03*
D166*
X008658Y014585D03*
X008658Y014335D03*
D167*
X006902Y014348D03*
X006902Y014373D03*
X006902Y014385D03*
X005990Y015085D03*
D168*
X006902Y014398D03*
X006902Y014360D03*
D169*
X006890Y014423D03*
X006452Y015210D03*
D170*
X006190Y015085D03*
X006890Y014435D03*
X008277Y014510D03*
X008490Y014435D03*
D171*
X008465Y014510D03*
X009202Y014648D03*
X006865Y014485D03*
X006052Y015160D03*
D172*
X006852Y014498D03*
D173*
X009608Y014523D03*
X009608Y014548D03*
X009608Y014585D03*
D174*
X009608Y014573D03*
X009608Y014560D03*
X009608Y014535D03*
D175*
X008440Y014610D03*
D176*
X008427Y014648D03*
D177*
X008427Y014660D03*
D178*
X008683Y014660D03*
D179*
X008027Y014823D03*
D180*
X008021Y014848D03*
X008021Y014860D03*
X008021Y014873D03*
D181*
X008015Y014898D03*
D182*
X008008Y014910D03*
D183*
X008008Y014923D03*
D184*
X007921Y014935D03*
D185*
X007546Y014948D03*
D186*
X007265Y014960D03*
D187*
X006996Y014973D03*
D188*
X006715Y014985D03*
D189*
X007802Y015035D03*
X007802Y015160D03*
D190*
X006727Y015123D03*
D191*
X006784Y015248D03*
D192*
X006896Y015348D03*
X006909Y015360D03*
X007133Y016010D03*
X009133Y015360D03*
X009146Y015348D03*
X009171Y015323D03*
D193*
X006934Y015385D03*
D194*
X006471Y015448D03*
D195*
X006471Y015460D03*
X008621Y015710D03*
D196*
X006471Y015473D03*
D197*
X006477Y015485D03*
D198*
X006477Y015498D03*
D199*
X006477Y015510D03*
D200*
X007096Y015948D03*
X008971Y015510D03*
D201*
X006884Y015935D03*
X006821Y015885D03*
X006496Y015560D03*
D202*
X006515Y015585D03*
X006602Y015673D03*
X006627Y015698D03*
X006652Y015723D03*
X006677Y015748D03*
X006802Y015860D03*
X006852Y015910D03*
D203*
X006702Y015773D03*
X006540Y015610D03*
D204*
X007333Y015673D03*
X008708Y015673D03*
D205*
X008683Y015685D03*
X007358Y015685D03*
D206*
X007383Y015698D03*
X008658Y015698D03*
D207*
X007465Y015735D03*
D208*
X007540Y015748D03*
D209*
X008440Y015748D03*
D210*
X008021Y015760D03*
D211*
X008027Y015773D03*
D212*
X006771Y015785D03*
D213*
X008021Y015785D03*
D214*
X006777Y015798D03*
D215*
X008021Y015798D03*
D216*
X006777Y015810D03*
D217*
X008021Y015810D03*
D218*
X006784Y015823D03*
D219*
X008027Y015823D03*
D220*
X006790Y015835D03*
D221*
X008021Y015835D03*
D222*
X006796Y015848D03*
D223*
X008021Y015848D03*
D224*
X008021Y015873D03*
D225*
X008021Y015885D03*
D226*
X008021Y015898D03*
D227*
X008021Y015910D03*
D228*
X006865Y015923D03*
D229*
X008021Y015935D03*
D230*
X008021Y015948D03*
D231*
X006702Y015973D03*
D232*
X006702Y016035D03*
D233*
X007027Y016060D03*
D234*
X009425Y012253D02*
X010225Y012253D01*
X010242Y012251D01*
X010259Y012247D01*
X010275Y012240D01*
X010289Y012230D01*
X010302Y012217D01*
X010312Y012203D01*
X010319Y012187D01*
X010323Y012170D01*
X010325Y012153D01*
X010325Y010453D01*
X010323Y010436D01*
X010319Y010419D01*
X010312Y010403D01*
X010302Y010389D01*
X010289Y010376D01*
X010275Y010366D01*
X010259Y010359D01*
X010242Y010355D01*
X010225Y010353D01*
X009425Y010353D01*
X009408Y010355D01*
X009391Y010359D01*
X009375Y010366D01*
X009361Y010376D01*
X009348Y010389D01*
X009338Y010403D01*
X009331Y010419D01*
X009327Y010436D01*
X009325Y010453D01*
X009325Y012153D01*
X009327Y012170D01*
X009331Y012187D01*
X009338Y012203D01*
X009348Y012217D01*
X009361Y012230D01*
X009375Y012240D01*
X009391Y012247D01*
X009408Y012251D01*
X009425Y012253D01*
X008808Y011712D02*
X008808Y011512D01*
X008708Y011612D02*
X008908Y011612D01*
X007108Y011212D02*
X007110Y011275D01*
X007116Y011337D01*
X007126Y011399D01*
X007139Y011461D01*
X007157Y011521D01*
X007178Y011580D01*
X007203Y011638D01*
X007232Y011694D01*
X007264Y011748D01*
X007299Y011800D01*
X007337Y011849D01*
X007379Y011897D01*
X007423Y011941D01*
X007471Y011983D01*
X007520Y012021D01*
X007572Y012056D01*
X007626Y012088D01*
X007682Y012117D01*
X007740Y012142D01*
X007799Y012163D01*
X007859Y012181D01*
X007921Y012194D01*
X007983Y012204D01*
X008045Y012210D01*
X008108Y012212D01*
X008171Y012210D01*
X008233Y012204D01*
X008295Y012194D01*
X008357Y012181D01*
X008417Y012163D01*
X008476Y012142D01*
X008534Y012117D01*
X008590Y012088D01*
X008644Y012056D01*
X008696Y012021D01*
X008745Y011983D01*
X008793Y011941D01*
X008837Y011897D01*
X008879Y011849D01*
X008917Y011800D01*
X008952Y011748D01*
X008984Y011694D01*
X009013Y011638D01*
X009038Y011580D01*
X009059Y011521D01*
X009077Y011461D01*
X009090Y011399D01*
X009100Y011337D01*
X009106Y011275D01*
X009108Y011212D01*
X009106Y011149D01*
X009100Y011087D01*
X009090Y011025D01*
X009077Y010963D01*
X009059Y010903D01*
X009038Y010844D01*
X009013Y010786D01*
X008984Y010730D01*
X008952Y010676D01*
X008917Y010624D01*
X008879Y010575D01*
X008837Y010527D01*
X008793Y010483D01*
X008745Y010441D01*
X008696Y010403D01*
X008644Y010368D01*
X008590Y010336D01*
X008534Y010307D01*
X008476Y010282D01*
X008417Y010261D01*
X008357Y010243D01*
X008295Y010230D01*
X008233Y010220D01*
X008171Y010214D01*
X008108Y010212D01*
X008045Y010214D01*
X007983Y010220D01*
X007921Y010230D01*
X007859Y010243D01*
X007799Y010261D01*
X007740Y010282D01*
X007682Y010307D01*
X007626Y010336D01*
X007572Y010368D01*
X007520Y010403D01*
X007471Y010441D01*
X007423Y010483D01*
X007379Y010527D01*
X007337Y010575D01*
X007299Y010624D01*
X007264Y010676D01*
X007232Y010730D01*
X007203Y010786D01*
X007178Y010844D01*
X007157Y010903D01*
X007139Y010963D01*
X007126Y011025D01*
X007116Y011087D01*
X007110Y011149D01*
X007108Y011212D01*
X006812Y010218D02*
X006810Y010171D01*
X006804Y010123D01*
X006795Y010077D01*
X006782Y010031D01*
X006766Y009987D01*
X006745Y009943D01*
X006722Y009902D01*
X006696Y009863D01*
X006666Y009826D01*
X006633Y009791D01*
X006598Y009759D01*
X006561Y009730D01*
X005612Y010218D02*
X005614Y010263D01*
X005619Y010309D01*
X005627Y010353D01*
X005639Y010397D01*
X005655Y010440D01*
X005673Y010482D01*
X005695Y010522D01*
X005719Y010560D01*
X005746Y010596D01*
X005776Y010631D01*
X005809Y010662D01*
X005844Y010692D01*
X005612Y010218D02*
X005614Y010173D01*
X005619Y010127D01*
X005627Y010083D01*
X005639Y010039D01*
X005655Y009996D01*
X005673Y009954D01*
X005695Y009914D01*
X005719Y009876D01*
X005746Y009840D01*
X005776Y009805D01*
X005809Y009774D01*
X005844Y009744D01*
X006812Y010218D02*
X006810Y010264D01*
X006805Y010310D01*
X006796Y010356D01*
X006784Y010401D01*
X006768Y010444D01*
X006749Y010486D01*
X006726Y010527D01*
X006701Y010566D01*
X006673Y010602D01*
X006642Y010637D01*
X006608Y010669D01*
X006572Y010698D01*
X009825Y011153D02*
X009825Y011203D01*
X009825Y011403D02*
X009825Y011453D01*
X013129Y011664D02*
X013129Y010914D01*
X017129Y010914D01*
X017129Y013214D01*
X013129Y013214D01*
X013129Y012464D01*
X013168Y012462D01*
X013207Y012456D01*
X013245Y012447D01*
X013282Y012434D01*
X013318Y012417D01*
X013351Y012397D01*
X013383Y012373D01*
X013412Y012347D01*
X013438Y012318D01*
X013462Y012286D01*
X013482Y012253D01*
X013499Y012217D01*
X013512Y012180D01*
X013521Y012142D01*
X013527Y012103D01*
X013529Y012064D01*
X013527Y012025D01*
X013521Y011986D01*
X013512Y011948D01*
X013499Y011911D01*
X013482Y011875D01*
X013462Y011842D01*
X013438Y011810D01*
X013412Y011781D01*
X013383Y011755D01*
X013351Y011731D01*
X013318Y011711D01*
X013282Y011694D01*
X013245Y011681D01*
X013207Y011672D01*
X013168Y011666D01*
X013129Y011664D01*
X014515Y014129D02*
X014615Y014129D01*
X014665Y014179D01*
X015565Y014179D01*
X015615Y014129D01*
X015715Y014129D01*
X015732Y014131D01*
X015749Y014135D01*
X015765Y014142D01*
X015779Y014152D01*
X015792Y014165D01*
X015802Y014179D01*
X015809Y014195D01*
X015813Y014212D01*
X015815Y014229D01*
X015815Y014729D02*
X015813Y014746D01*
X015809Y014763D01*
X015802Y014779D01*
X015792Y014793D01*
X015779Y014806D01*
X015765Y014816D01*
X015749Y014823D01*
X015732Y014827D01*
X015715Y014829D01*
X015615Y014829D01*
X015565Y014779D01*
X014665Y014779D01*
X014615Y014829D01*
X014515Y014829D01*
X014498Y014827D01*
X014481Y014823D01*
X014465Y014816D01*
X014451Y014806D01*
X014438Y014793D01*
X014428Y014779D01*
X014421Y014763D01*
X014417Y014746D01*
X014415Y014729D01*
X014415Y014229D02*
X014417Y014212D01*
X014421Y014195D01*
X014428Y014179D01*
X014438Y014165D01*
X014451Y014152D01*
X014465Y014142D01*
X014481Y014135D01*
X014498Y014131D01*
X014515Y014129D01*
X013885Y014863D02*
X013885Y014963D01*
X013835Y015013D01*
X013835Y015913D01*
X013885Y015963D01*
X013885Y016063D01*
X013883Y016080D01*
X013879Y016097D01*
X013872Y016113D01*
X013862Y016127D01*
X013849Y016140D01*
X013835Y016150D01*
X013819Y016157D01*
X013802Y016161D01*
X013785Y016163D01*
X013285Y016163D02*
X013268Y016161D01*
X013251Y016157D01*
X013235Y016150D01*
X013221Y016140D01*
X013208Y016127D01*
X013198Y016113D01*
X013191Y016097D01*
X013187Y016080D01*
X013185Y016063D01*
X013185Y015963D01*
X013235Y015913D01*
X013235Y015013D01*
X013185Y014963D01*
X013185Y014863D01*
X013187Y014846D01*
X013191Y014829D01*
X013198Y014813D01*
X013208Y014799D01*
X013221Y014786D01*
X013235Y014776D01*
X013251Y014769D01*
X013268Y014765D01*
X013285Y014763D01*
X013785Y014763D02*
X013802Y014765D01*
X013819Y014769D01*
X013835Y014776D01*
X013849Y014786D01*
X013862Y014799D01*
X013872Y014813D01*
X013879Y014829D01*
X013883Y014846D01*
X013885Y014863D01*
X015027Y015982D02*
X015098Y015912D01*
X015168Y015912D01*
X015805Y015275D01*
X015805Y015205D01*
X015876Y015134D01*
X015875Y015134D02*
X015889Y015123D01*
X015904Y015114D01*
X015920Y015108D01*
X015937Y015105D01*
X015955Y015105D01*
X015972Y015108D01*
X015988Y015114D01*
X016003Y015123D01*
X016017Y015134D01*
X016371Y015487D02*
X016382Y015501D01*
X016391Y015516D01*
X016397Y015532D01*
X016400Y015549D01*
X016400Y015567D01*
X016397Y015584D01*
X016391Y015600D01*
X016382Y015615D01*
X016371Y015629D01*
X016300Y015700D01*
X016229Y015700D01*
X015593Y016336D01*
X015593Y016407D01*
X015522Y016477D01*
X015522Y016478D02*
X015508Y016489D01*
X015493Y016498D01*
X015477Y016504D01*
X015460Y016507D01*
X015442Y016507D01*
X015425Y016504D01*
X015409Y016498D01*
X015394Y016489D01*
X015380Y016478D01*
X015027Y016124D02*
X015016Y016110D01*
X015007Y016095D01*
X015001Y016079D01*
X014998Y016062D01*
X014998Y016044D01*
X015001Y016027D01*
X015007Y016011D01*
X015016Y015996D01*
X015027Y015982D01*
X016932Y013989D02*
X016921Y013975D01*
X016912Y013960D01*
X016906Y013944D01*
X016903Y013927D01*
X016903Y013909D01*
X016906Y013892D01*
X016912Y013876D01*
X016921Y013861D01*
X016932Y013847D01*
X017003Y013776D01*
X017073Y013776D01*
X017710Y013140D01*
X017710Y013069D01*
X017781Y012999D01*
X017780Y012998D02*
X017794Y012987D01*
X017809Y012978D01*
X017825Y012972D01*
X017842Y012969D01*
X017860Y012969D01*
X017877Y012972D01*
X017893Y012978D01*
X017908Y012987D01*
X017922Y012998D01*
X018276Y013352D02*
X018287Y013366D01*
X018296Y013381D01*
X018302Y013397D01*
X018305Y013414D01*
X018305Y013432D01*
X018302Y013449D01*
X018296Y013465D01*
X018287Y013480D01*
X018276Y013494D01*
X018205Y013564D01*
X018134Y013564D01*
X017498Y014201D01*
X017498Y014271D01*
X017427Y014342D01*
X017413Y014353D01*
X017398Y014362D01*
X017382Y014368D01*
X017365Y014371D01*
X017347Y014371D01*
X017330Y014368D01*
X017314Y014362D01*
X017299Y014353D01*
X017285Y014342D01*
X019248Y012492D02*
X019262Y012503D01*
X019277Y012512D01*
X019293Y012518D01*
X019310Y012521D01*
X019328Y012521D01*
X019345Y012518D01*
X019361Y012512D01*
X019376Y012503D01*
X019390Y012492D01*
X019389Y012492D02*
X019460Y012421D01*
X019460Y012350D01*
X020096Y011714D01*
X020167Y011714D01*
X020238Y011643D01*
X020249Y011629D01*
X020258Y011614D01*
X020264Y011598D01*
X020267Y011581D01*
X020267Y011563D01*
X020264Y011546D01*
X020258Y011530D01*
X020249Y011515D01*
X020238Y011501D01*
X019885Y011148D02*
X019871Y011137D01*
X019856Y011128D01*
X019840Y011122D01*
X019823Y011119D01*
X019805Y011119D01*
X019788Y011122D01*
X019772Y011128D01*
X019757Y011137D01*
X019743Y011148D01*
X019672Y011219D01*
X019672Y011290D01*
X019036Y011926D01*
X018965Y011926D01*
X018894Y011997D01*
X018894Y011996D02*
X018883Y012010D01*
X018874Y012025D01*
X018868Y012041D01*
X018865Y012058D01*
X018865Y012076D01*
X018868Y012093D01*
X018874Y012109D01*
X018883Y012124D01*
X018894Y012138D01*
X018692Y010377D02*
X018690Y010332D01*
X018685Y010286D01*
X018677Y010242D01*
X018665Y010198D01*
X018649Y010155D01*
X018631Y010113D01*
X018609Y010073D01*
X018585Y010035D01*
X018558Y009999D01*
X018528Y009964D01*
X018495Y009933D01*
X018460Y009903D01*
X017492Y010377D02*
X017494Y010424D01*
X017500Y010472D01*
X017509Y010518D01*
X017522Y010564D01*
X017538Y010608D01*
X017559Y010652D01*
X017582Y010693D01*
X017608Y010732D01*
X017638Y010769D01*
X017671Y010804D01*
X017706Y010836D01*
X017743Y010865D01*
X017492Y010377D02*
X017494Y010331D01*
X017499Y010285D01*
X017508Y010239D01*
X017520Y010194D01*
X017536Y010151D01*
X017555Y010109D01*
X017578Y010068D01*
X017603Y010029D01*
X017631Y009993D01*
X017662Y009958D01*
X017696Y009926D01*
X017732Y009897D01*
X018692Y010377D02*
X018690Y010422D01*
X018685Y010468D01*
X018677Y010512D01*
X018665Y010556D01*
X018649Y010599D01*
X018631Y010641D01*
X018609Y010681D01*
X018585Y010719D01*
X018558Y010755D01*
X018528Y010790D01*
X018495Y010821D01*
X018460Y010851D01*
D235*
X017292Y010377D02*
X017294Y010323D01*
X017299Y010269D01*
X017308Y010216D01*
X017321Y010163D01*
X017337Y010112D01*
X017357Y010062D01*
X017380Y010013D01*
X017406Y009965D01*
X017435Y009920D01*
X017468Y009877D01*
X017503Y009836D01*
X017541Y009797D01*
X017581Y009761D01*
X017624Y009728D01*
X017669Y009698D01*
X017716Y009671D01*
X018489Y009682D02*
X018537Y009712D01*
X018582Y009745D01*
X018625Y009781D01*
X018666Y009819D01*
X018703Y009861D01*
X018738Y009905D01*
X018769Y009951D01*
X018798Y010000D01*
X018822Y010050D01*
X018843Y010102D01*
X018861Y010156D01*
X018874Y010210D01*
X018884Y010265D01*
X018890Y010321D01*
X018892Y010377D01*
X018890Y010430D01*
X018885Y010484D01*
X018876Y010536D01*
X018864Y010588D01*
X018848Y010639D01*
X018829Y010689D01*
X018806Y010738D01*
X018780Y010785D01*
X018752Y010830D01*
X018720Y010873D01*
X018686Y010913D01*
X018648Y010952D01*
X018609Y010988D01*
X017580Y010992D02*
X017540Y010956D01*
X017502Y010917D01*
X017467Y010876D01*
X017435Y010833D01*
X017405Y010788D01*
X017379Y010741D01*
X017357Y010692D01*
X017337Y010641D01*
X017321Y010590D01*
X017308Y010538D01*
X017299Y010484D01*
X017294Y010431D01*
X017292Y010377D01*
X012900Y011216D02*
X012900Y011716D01*
X012400Y011716D01*
X012400Y011566D01*
X012400Y011716D02*
X011900Y011716D01*
X011900Y012216D01*
X011900Y012716D02*
X012400Y012716D01*
X012900Y012716D01*
X012400Y011716D01*
X011900Y012716D01*
X012400Y012716D02*
X012400Y012866D01*
X012425Y014328D02*
X012425Y014478D01*
X011925Y014478D01*
X012425Y015478D01*
X011925Y015478D01*
X011925Y015978D01*
X012425Y015628D02*
X012425Y015478D01*
X012925Y015478D01*
X012925Y014978D01*
X012925Y014478D02*
X012425Y014478D01*
X012925Y014478D02*
X012425Y015478D01*
X010125Y011403D02*
X009825Y011403D01*
X009525Y011403D01*
X009525Y011203D02*
X009825Y011203D01*
X010125Y011203D01*
X005815Y010913D02*
X005767Y010883D01*
X005722Y010850D01*
X005679Y010814D01*
X005638Y010776D01*
X005601Y010734D01*
X005566Y010690D01*
X005535Y010644D01*
X005506Y010595D01*
X005482Y010545D01*
X005461Y010493D01*
X005443Y010439D01*
X005430Y010385D01*
X005420Y010330D01*
X005414Y010274D01*
X005412Y010218D01*
X006588Y010924D02*
X006635Y010897D01*
X006680Y010867D01*
X006723Y010834D01*
X006763Y010798D01*
X006801Y010759D01*
X006836Y010718D01*
X006869Y010675D01*
X006898Y010630D01*
X006924Y010582D01*
X006947Y010533D01*
X006967Y010483D01*
X006983Y010432D01*
X006996Y010379D01*
X007005Y010326D01*
X007010Y010272D01*
X007012Y010218D01*
X005695Y009607D02*
X005656Y009643D01*
X005618Y009682D01*
X005584Y009722D01*
X005552Y009765D01*
X005524Y009810D01*
X005498Y009857D01*
X005475Y009906D01*
X005456Y009956D01*
X005440Y010007D01*
X005428Y010059D01*
X005419Y010111D01*
X005414Y010165D01*
X005412Y010218D01*
X006724Y009603D02*
X006764Y009639D01*
X006802Y009678D01*
X006837Y009719D01*
X006869Y009762D01*
X006899Y009807D01*
X006925Y009854D01*
X006947Y009903D01*
X006967Y009954D01*
X006983Y010005D01*
X006996Y010057D01*
X007005Y010111D01*
X007010Y010164D01*
X007012Y010218D01*
D236*
X006386Y008337D02*
X006386Y008111D01*
X006837Y008111D01*
X006687Y008111D02*
X006687Y008337D01*
X006612Y008412D01*
X006462Y008412D01*
X006386Y008337D01*
X006386Y008572D02*
X006837Y008572D01*
X006687Y008722D01*
X006837Y008872D01*
X006386Y008872D01*
X006386Y009032D02*
X006386Y009257D01*
X006462Y009332D01*
X006612Y009332D01*
X006687Y009257D01*
X006687Y009032D01*
X006837Y009032D02*
X006386Y009032D01*
X006687Y009182D02*
X006837Y009332D01*
X008533Y009391D02*
X008608Y009316D01*
X008908Y009316D01*
X008983Y009391D01*
X008983Y009541D01*
X008908Y009616D01*
X008983Y009776D02*
X008983Y010076D01*
X008983Y009926D02*
X008533Y009926D01*
X008683Y009776D01*
X008608Y009616D02*
X008533Y009541D01*
X008533Y009391D01*
X010450Y011383D02*
X010525Y011308D01*
X010825Y011308D01*
X010900Y011383D01*
X010900Y011533D01*
X010825Y011608D01*
X010900Y011768D02*
X010600Y012068D01*
X010525Y012068D01*
X010450Y011993D01*
X010450Y011843D01*
X010525Y011768D01*
X010525Y011608D02*
X010450Y011533D01*
X010450Y011383D01*
X010900Y011768D02*
X010900Y012068D01*
X011205Y011897D02*
X011205Y011746D01*
X011280Y011671D01*
X011280Y011511D02*
X011580Y011211D01*
X011655Y011211D01*
X011655Y011511D01*
X011655Y011671D02*
X011355Y011972D01*
X011280Y011972D01*
X011205Y011897D01*
X011205Y011511D02*
X011280Y011511D01*
X011205Y011511D02*
X011205Y011211D01*
X011655Y011671D02*
X011655Y011972D01*
X012397Y012734D02*
X012472Y012809D01*
X012472Y012884D01*
X012397Y012959D01*
X012021Y012959D01*
X012021Y012884D02*
X012021Y013034D01*
X012021Y013195D02*
X012021Y013420D01*
X012096Y013495D01*
X012247Y013495D01*
X012322Y013420D01*
X012322Y013195D01*
X012472Y013195D02*
X012021Y013195D01*
X012096Y013655D02*
X012021Y013730D01*
X012021Y013880D01*
X012096Y013955D01*
X012171Y013955D01*
X012247Y013880D01*
X012322Y013955D01*
X012397Y013955D01*
X012472Y013880D01*
X012472Y013730D01*
X012397Y013655D01*
X012247Y013805D02*
X012247Y013880D01*
X013170Y015112D02*
X013170Y015412D01*
X013245Y015412D01*
X013545Y015112D01*
X013620Y015112D01*
X013620Y015412D01*
X013620Y015572D02*
X013620Y015873D01*
X013620Y015722D02*
X013170Y015722D01*
X013320Y015572D01*
X010734Y015465D02*
X010434Y015465D01*
X010734Y015765D01*
X010734Y015840D01*
X010659Y015915D01*
X010509Y015915D01*
X010434Y015840D01*
X010274Y015840D02*
X010274Y015690D01*
X010199Y015615D01*
X009974Y015615D01*
X009974Y015465D02*
X009974Y015915D01*
X010199Y015915D01*
X010274Y015840D01*
X009813Y015915D02*
X009663Y015915D01*
X009738Y015915D02*
X009738Y015540D01*
X009663Y015465D01*
X009588Y015465D01*
X009513Y015540D01*
X013904Y012850D02*
X013904Y012424D01*
X013989Y012339D01*
X014159Y012339D01*
X014244Y012424D01*
X014244Y012850D01*
X014420Y012680D02*
X014590Y012850D01*
X014590Y012339D01*
X014420Y012339D02*
X014760Y012339D01*
X017467Y012223D02*
X017617Y012373D01*
X017917Y012373D01*
X017692Y012373D02*
X017692Y012073D01*
X017617Y012073D02*
X017467Y012223D01*
X017617Y012073D02*
X017917Y012073D01*
X017917Y011763D02*
X017467Y011763D01*
X017467Y011913D02*
X017467Y011612D01*
X017542Y011452D02*
X017467Y011377D01*
X017467Y011227D01*
X017542Y011152D01*
X017617Y011152D01*
X017692Y011227D01*
X017692Y011377D01*
X017767Y011452D01*
X017842Y011452D01*
X017917Y011377D01*
X017917Y011227D01*
X017842Y011152D01*
X017467Y012533D02*
X017467Y012833D01*
X017467Y012683D02*
X017917Y012683D01*
D237*
X019292Y011416D02*
X019416Y011292D01*
X019416Y011209D01*
X019333Y011127D01*
X019251Y011127D01*
X019127Y011251D01*
X019209Y011168D02*
X019209Y011003D01*
X019339Y010955D02*
X019339Y010873D01*
X019422Y010790D01*
X019505Y010790D01*
X019587Y010873D01*
X019587Y010955D01*
X019546Y010997D01*
X019422Y011038D01*
X019546Y011162D01*
X019711Y010997D01*
X019292Y011416D02*
X019044Y011168D01*
X017776Y014177D02*
X018024Y014424D01*
X017776Y014424D01*
X017942Y014259D01*
X017688Y014513D02*
X017605Y014513D01*
X017481Y014637D01*
X017399Y014554D02*
X017646Y014802D01*
X017770Y014678D01*
X017770Y014596D01*
X017688Y014513D01*
X017564Y014554D02*
X017564Y014389D01*
X015954Y016312D02*
X015872Y016312D01*
X015789Y016394D01*
X015789Y016477D01*
X015659Y016524D02*
X015659Y016690D01*
X015700Y016648D02*
X015576Y016772D01*
X015494Y016690D02*
X015741Y016937D01*
X015865Y016813D01*
X015865Y016731D01*
X015783Y016648D01*
X015700Y016648D01*
X015954Y016642D02*
X016037Y016642D01*
X016119Y016559D01*
X016119Y016477D01*
X016078Y016436D01*
X015995Y016436D01*
X015995Y016353D01*
X015954Y016312D01*
X015995Y016436D02*
X015954Y016477D01*
X014821Y015309D02*
X014821Y014959D01*
X014937Y014959D02*
X014704Y014959D01*
X014578Y014959D02*
X014461Y015075D01*
X014520Y015075D02*
X014345Y015075D01*
X014345Y014959D02*
X014345Y015309D01*
X014520Y015309D01*
X014578Y015251D01*
X014578Y015134D01*
X014520Y015075D01*
X014704Y015192D02*
X014821Y015309D01*
X014365Y015555D02*
X014015Y015555D01*
X014015Y015730D01*
X014073Y015788D01*
X014190Y015788D01*
X014248Y015730D01*
X014248Y015555D01*
X014248Y015672D02*
X014365Y015788D01*
X014365Y015914D02*
X014131Y016147D01*
X014073Y016147D01*
X014015Y016089D01*
X014015Y015972D01*
X014073Y015914D01*
X014365Y015914D02*
X014365Y016147D01*
D238*
X017966Y012509D02*
X017947Y012319D01*
X017883Y012298D01*
X017823Y012267D01*
X017675Y012388D01*
X017573Y012287D01*
X017694Y012138D01*
X017663Y012078D01*
X017643Y012014D01*
X017452Y011995D01*
X017452Y011851D01*
X017643Y011832D01*
X017663Y011768D01*
X017694Y011708D01*
X017573Y011559D01*
X017675Y011458D01*
X017823Y011579D01*
X017883Y011548D01*
X017968Y011753D01*
X017930Y011774D01*
X017898Y011803D01*
X017874Y011839D01*
X017859Y011880D01*
X017854Y011923D01*
X017859Y011967D01*
X017875Y012008D01*
X017900Y012045D01*
X017933Y012074D01*
X017971Y012095D01*
X018014Y012106D01*
X018058Y012106D01*
X018101Y012096D01*
X018141Y012076D01*
X018174Y012048D01*
X018200Y012012D01*
X018217Y011971D01*
X018223Y011927D01*
X018219Y011883D01*
X018204Y011841D01*
X018180Y011804D01*
X018147Y011774D01*
X018109Y011753D01*
X018194Y011548D01*
X018254Y011579D01*
X018402Y011458D01*
X018504Y011559D01*
X018383Y011708D01*
X018413Y011768D01*
X018434Y011832D01*
X018625Y011851D01*
X018625Y011995D01*
X018434Y012014D01*
X018413Y012078D01*
X018383Y012138D01*
X018504Y012287D01*
X018402Y012388D01*
X018254Y012267D01*
X018194Y012298D01*
X018130Y012319D01*
X018110Y012509D01*
X017966Y012509D01*
X017962Y012465D02*
X018115Y012465D01*
X018121Y012408D02*
X017956Y012408D01*
X017950Y012350D02*
X018127Y012350D01*
X018205Y012293D02*
X017872Y012293D01*
X017792Y012293D02*
X017579Y012293D01*
X017615Y012235D02*
X018462Y012235D01*
X018498Y012293D02*
X018284Y012293D01*
X018355Y012350D02*
X018440Y012350D01*
X018415Y012177D02*
X017662Y012177D01*
X017685Y012120D02*
X018392Y012120D01*
X018419Y012062D02*
X018157Y012062D01*
X018203Y012005D02*
X018529Y012005D01*
X018625Y011947D02*
X018220Y011947D01*
X018219Y011890D02*
X018625Y011890D01*
X018438Y011832D02*
X018198Y011832D01*
X018148Y011775D02*
X018416Y011775D01*
X018387Y011717D02*
X018124Y011717D01*
X018148Y011659D02*
X018422Y011659D01*
X018469Y011602D02*
X018171Y011602D01*
X018296Y011544D02*
X018489Y011544D01*
X018431Y011487D02*
X018366Y011487D01*
X017929Y011659D02*
X017654Y011659D01*
X017689Y011717D02*
X017953Y011717D01*
X017929Y011775D02*
X017661Y011775D01*
X017639Y011832D02*
X017879Y011832D01*
X017858Y011890D02*
X017452Y011890D01*
X017452Y011947D02*
X017857Y011947D01*
X017873Y012005D02*
X017548Y012005D01*
X017658Y012062D02*
X017919Y012062D01*
X017722Y012350D02*
X017636Y012350D01*
X017608Y011602D02*
X017905Y011602D01*
X017781Y011544D02*
X017588Y011544D01*
X017646Y011487D02*
X017710Y011487D01*
M02*
