%
M48
M72
T01C0.0236
T02C0.0320
T03C0.0400
T04C0.0630
%
T01
X12464Y16872
X5003Y12335
X5702Y12760
X6140Y14085
X5177Y15098
X7502Y10398
X12427Y12385
X13564Y12985
X14639Y14235
X15114Y11499
T02
X6212Y9718
X6212Y10718
X8108Y10812
X8108Y11612
X9825Y11803
X9825Y10803
X12400Y11216
X13629Y10564
X14629Y10564
X15629Y10564
X16629Y10564
X18092Y10877
X18092Y9877
X20273Y11113
X14992Y16513
X13535Y16463
X12425Y15978
X13535Y14463
X14115Y14479
X13629Y13564
X14629Y13564
X15629Y13564
X16629Y13564
X16897Y14378
X16115Y14479
X16406Y15099
X18311Y12963
X18859Y12527
X12400Y13216
X12425Y13978
T03
X11277Y11560
X11277Y12560
X11277Y13560
X10339Y16660
X9339Y16660
X8339Y16660
X7339Y16660
X6339Y16660
X5339Y16660
T04
X11405Y17455
M30
